<svg xmlns="http://www.w3.org/2000/svg" xmlns:svg="http://www.w3.org/2000/svg" id="svg4268" width="15.998" height="12.003" version="1.1" viewBox="0 0 4.233 3.176"><metadata id="metadata4265"/><g id="accept-event-action" transform="translate(-17.198834,-44.85156)" style="display:inline"><g id="path1260"><path style="color:#000;fill:#000;fill-opacity:0;stroke-width:.529167;stroke-linejoin:round;-inkscape-stroke:none" id="path4086" d="m 17.4625,45.116659 0.79375,1.322916 -0.79375,1.322917 h 3.704167 v -2.645834 z"/><path style="color:#000;fill:#000;stroke-linejoin:round;-inkscape-stroke:none" id="path4088" d="m 17.462891,44.851562 a 0.26460996,0.26460996 0 0 0 -0.226563,0.400391 l 0.710938,1.1875 -0.710938,1.1875 a 0.26460996,0.26460996 0 0 0 0.226563,0.400391 h 3.703125 a 0.26460996,0.26460996 0 0 0 0.265625,-0.265625 v -2.644532 a 0.26460996,0.26460996 0 0 0 -0.265625,-0.265625 z m 0.466796,0.529297 h 2.972657 v 2.117188 h -2.972657 l 0.552735,-0.921875 a 0.26460996,0.26460996 0 0 0 0,-0.273438 z"/></g></g></svg>