<svg xmlns="http://www.w3.org/2000/svg" xmlns:svg="http://www.w3.org/2000/svg" id="svg4268" width="15.997" height="15.997" version="1.1" viewBox="0 0 4.232 4.232"><metadata id="metadata4265"/><g id="metaclass" transform="translate(-43.65625,-33.740234)" style="display:inline"><g id="rect4893-9"><path style="color:#000;fill:#000;fill-opacity:0;stroke-width:.529167;stroke-linecap:square;stroke-linejoin:round;-inkscape-stroke:none" id="path4288" d="M 43.920834,34.004158 H 47.625 v 3.70417 h -3.704166 z"/><path style="color:#000;fill:#000;stroke-linecap:square;stroke-linejoin:round;-inkscape-stroke:none" id="path4290" d="m 43.919922,33.740234 a 0.26460996,0.26460996 0 0 0 -0.263672,0.263672 v 3.705078 a 0.26460996,0.26460996 0 0 0 0.263672,0.263672 H 47.625 a 0.26460996,0.26460996 0 0 0 0.263672,-0.263672 V 34.003906 A 0.26460996,0.26460996 0 0 0 47.625,33.740234 Z m 0.265625,0.529297 h 3.175781 v 3.173828 h -3.175781 z"/></g><path style="color:#000;fill:#000;-inkscape-stroke:none" id="path4895-3" d="m 44.185547,35.935547 v 0.371094 h 3.175781 v -0.371094 z"/><path style="color:#000;fill:#000;stroke-linecap:round;stroke-linejoin:round;-inkscape-stroke:none" id="path1269" d="m 45.173828,34.361328 a 0.18522702,0.18522702 0 0 0 -0.115234,0.171875 v 1.058594 a 0.1852085,0.1852085 0 0 0 0.185547,0.185547 0.1852085,0.1852085 0 0 0 0.185546,-0.185547 v -0.611328 l 0.212891,0.21289 a 0.18522702,0.18522702 0 0 0 0.261719,0 l 0.21289,-0.21289 v 0.611328 a 0.1852085,0.1852085 0 0 0 0.185547,0.185547 0.1852085,0.1852085 0 0 0 0.183594,-0.185547 V 34.533203 A 0.18522702,0.18522702 0 0 0 46.171875,34.402344 L 45.773437,34.800781 45.375,34.402344 a 0.18522702,0.18522702 0 0 0 -0.201172,-0.04102 z"/></g></svg>