<svg xmlns="http://www.w3.org/2000/svg" xmlns:svg="http://www.w3.org/2000/svg" id="svg4268" width="16.004" height="15.997" version="1.1" viewBox="0 0 4.234 4.232"><metadata id="metadata4265"/><g id="diagram" transform="translate(-17.197264,4.625002)" style="display:inline"><g id="rect1563"><path style="color:#000;fill:#000;fill-opacity:0;stroke-width:.529167;stroke-linecap:round;stroke-linejoin:round;-inkscape-stroke:none" id="path3532" d="m 17.4625,-2.508342 h 1.322916 v 1.85208401 H 17.4625 Z"/><path style="color:#000;fill:#000;stroke-linecap:round;stroke-linejoin:round;-inkscape-stroke:none" id="path3534" d="m 17.462891,-2.7734375 a 0.26460996,0.26460996 0 0 0 -0.265625,0.265625 V -0.65625 a 0.26460996,0.26460996 0 0 0 0.265625,0.26367187 h 1.322265 A 0.26460996,0.26460996 0 0 0 19.050781,-0.65625 v -1.8515625 a 0.26460996,0.26460996 0 0 0 -0.265625,-0.265625 z m 0.263671,0.5292969 h 0.794922 v 1.32421872 h -0.794922 z"/></g><path style="color:#000;fill:#000;stroke-linecap:square;stroke-linejoin:round;-inkscape-stroke:none" id="path4891" d="m 17.992187,-3.7519531 a 0.18522702,0.18522702 0 0 0 -0.185546,0.1855468 v 0.7929688 0.1855469 h 0.371093 v -0.1855469 -0.6074219 h 1.402344 0.183594 v -0.3710937 h -0.183594 z"/><g id="rect1566"><path style="color:#000;fill:#000;fill-opacity:0;stroke-width:.529167;stroke-linecap:round;stroke-linejoin:round;-inkscape-stroke:none" id="path3518" d="m 19.843748,-4.360425 h 1.322917 v 1.8520833 h -1.322917 z"/><path style="color:#000;fill:#000;stroke-linecap:round;stroke-linejoin:round;-inkscape-stroke:none" id="path3520" d="m 19.84375,-4.625 a 0.26460996,0.26460996 0 0 0 -0.263672,0.2636719 v 1.8535156 a 0.26460996,0.26460996 0 0 0 0.263672,0.2636719 h 1.322266 a 0.26460996,0.26460996 0 0 0 0.265625,-0.2636719 V -4.3613281 A 0.26460996,0.26460996 0 0 0 21.166016,-4.625 Z m 0.263672,0.5292969 h 0.794922 v 1.3222656 h -0.794922 z"/></g></g></svg>