<svg xmlns="http://www.w3.org/2000/svg" xmlns:svg="http://www.w3.org/2000/svg" id="svg4268" width="16.004" height="12.003" version="1.1" viewBox="0 0 4.234 3.176"><metadata id="metadata4265"/><g id="action" transform="translate(-1.3222656,-34.130859)" style="display:inline"><g id="rect1400"><path style="color:#000;fill:#000;fill-opacity:0;stroke-width:.529167;-inkscape-stroke:none" id="path2692" d="m 2.6458344,34.395832 h 1.5874973 c 0.5863174,0 1.0583347,0.472017 1.0583347,1.058335 v 0.529164 c 0,0.586317 -0.4720173,1.058334 -1.0583347,1.058334 H 2.6458344 c -0.5863174,0 -1.0583347,-0.472017 -1.0583347,-1.058334 v -0.529164 c 0,-0.586318 0.4720173,-1.058335 1.0583347,-1.058335 z"/><path style="color:#000;fill:#000;-inkscape-stroke:none" id="path2694" d="m 2.6464844,34.130859 c -0.7283194,0 -1.3242188,0.5959 -1.3242188,1.324219 v 0.527344 c 0,0.728319 0.5958994,1.324219 1.3242188,1.324219 h 1.5859375 c 0.7283194,0 1.3242187,-0.5959 1.3242187,-1.324219 v -0.527344 c 0,-0.728319 -0.5958993,-1.324219 -1.3242187,-1.324219 z m 0,0.529297 h 1.5859375 c 0.4443143,0 0.7949218,0.350608 0.7949218,0.794922 v 0.527344 c 0,0.444314 -0.3506075,0.794922 -0.7949218,0.794922 H 2.6464844 c -0.4443143,0 -0.7949219,-0.350608 -0.7949219,-0.794922 v -0.527344 c 0,-0.444314 0.3506076,-0.794922 0.7949219,-0.794922 z"/></g></g></svg>