<svg xmlns="http://www.w3.org/2000/svg" xmlns:svg="http://www.w3.org/2000/svg" id="svg4268" width="9.996" height="15.997" version="1.1" viewBox="0 0 2.645 4.232"><metadata id="metadata4265"/><g id="extension" transform="translate(-60.325077,-33.74019)" style="display:inline"><path style="color:#000;fill:#000;stroke-width:.529167;stroke-linecap:round;stroke-linejoin:round;-inkscape-stroke:none" id="path4621-9" d="m 61.642578,33.740234 c -0.08646,0.0016 -0.166681,0.04537 -0.214844,0.117188 l -1.058593,1.58789 c -0.11581,0.175835 0.01016,0.409933 0.220703,0.410157 h 2.117187 c 0.209665,-0.0018 0.334087,-0.235057 0.21875,-0.410157 l -1.058593,-1.58789 c -0.05009,-0.07469 -0.13469,-0.118834 -0.22461,-0.117188 z"/><path style="color:#000;fill:#000;stroke-linecap:round;-inkscape-stroke:none" id="path4625-2" d="m 61.648437,35.591797 a 0.2645835,0.2645835 0 0 0 -0.265625,0.263672 v 1.853515 a 0.2645835,0.2645835 0 0 0 0.265625,0.263672 0.2645835,0.2645835 0 0 0 0.263672,-0.263672 v -1.853515 a 0.2645835,0.2645835 0 0 0 -0.263672,-0.263672 z"/></g></svg>