<svg xmlns="http://www.w3.org/2000/svg" xmlns:svg="http://www.w3.org/2000/svg" id="svg4268" width="15.997" height="15.997" version="1.1" viewBox="0 0 4.232 4.232"><metadata id="metadata4265"/><g id="stereotype" transform="translate(-51.59375,-33.740234)" style="display:inline"><g id="rect4893-0"><path style="color:#000;fill:#000;fill-opacity:0;stroke-width:.529167;stroke-linecap:square;stroke-linejoin:round;-inkscape-stroke:none" id="path4326" d="M 51.858334,34.004158 H 55.5625 v 3.704166 h -3.704166 z"/><path style="color:#000;fill:#000;stroke-linecap:square;stroke-linejoin:round;-inkscape-stroke:none" id="path4328" d="m 51.857422,33.740234 a 0.26460996,0.26460996 0 0 0 -0.263672,0.263672 v 3.705078 a 0.26460996,0.26460996 0 0 0 0.263672,0.263672 H 55.5625 a 0.26460996,0.26460996 0 0 0 0.263672,-0.263672 V 34.003906 A 0.26460996,0.26460996 0 0 0 55.5625,33.740234 Z m 0.265625,0.529297 h 3.175781 v 3.173828 h -3.175781 z"/></g><path style="color:#000;fill:#000;-inkscape-stroke:none" id="path4897-2" d="m 52.123047,35.935547 v 0.371094 h 3.175781 v -0.371094 z"/><path style="color:#000;fill:#000;stroke-linecap:round;stroke-linejoin:round;-inkscape-stroke:none" id="path1206-6" d="m 52.822266,34.439453 -0.527344,0.529297 a 0.13230472,0.13230472 0 0 0 0,0.1875 l 0.527344,0.529297 a 0.1322915,0.1322915 0 0 0 0.1875,0 0.1322915,0.1322915 0 0 0 0,-0.1875 L 52.574219,35.0625 53.009766,34.626953 a 0.1322915,0.1322915 0 0 0 0,-0.1875 0.1322915,0.1322915 0 0 0 -0.1875,0 z"/><path style="color:#000;fill:#000;stroke-linecap:round;stroke-linejoin:round;-inkscape-stroke:none" id="path1208-1" d="m 53.445312,34.400391 a 0.1322915,0.1322915 0 0 0 -0.09375,0.03906 l -0.529296,0.529297 a 0.13230472,0.13230472 0 0 0 0,0.1875 l 0.529296,0.529297 a 0.1322915,0.1322915 0 0 0 0.1875,0 0.1322915,0.1322915 0 0 0 0,-0.1875 L 53.103516,35.0625 53.539062,34.626953 a 0.1322915,0.1322915 0 0 0 0,-0.1875 0.1322915,0.1322915 0 0 0 -0.09375,-0.03906 z"/><path style="color:#000;fill:#000;stroke-linecap:round;stroke-linejoin:round;-inkscape-stroke:none" id="path1210-8" d="m 54.503906,34.400391 a 0.1322915,0.1322915 0 0 0 -0.09375,0.03906 0.1322915,0.1322915 0 0 0 0,0.1875 l 0.435547,0.435547 -0.435547,0.435547 a 0.1322915,0.1322915 0 0 0 0,0.1875 0.1322915,0.1322915 0 0 0 0.1875,0 l 0.529297,-0.529297 a 0.13230472,0.13230472 0 0 0 0,-0.1875 l -0.529297,-0.529297 a 0.1322915,0.1322915 0 0 0 -0.09375,-0.03906 z"/><path style="color:#000;fill:#000;stroke-linecap:round;stroke-linejoin:round;-inkscape-stroke:none" id="path1212-7" d="m 53.880859,34.439453 a 0.1322915,0.1322915 0 0 0 0,0.1875 l 0.435547,0.435547 -0.435547,0.435547 a 0.1322915,0.1322915 0 0 0 0,0.1875 0.1322915,0.1322915 0 0 0 0.1875,0 l 0.529297,-0.529297 a 0.13230472,0.13230472 0 0 0 0,-0.1875 l -0.529297,-0.529297 a 0.1322915,0.1322915 0 0 0 -0.1875,0 z"/></g></svg>