<svg xmlns="http://www.w3.org/2000/svg" xmlns:svg="http://www.w3.org/2000/svg" id="svg4268" width="12.003" height="15.997" version="1.1" viewBox="0 0 3.176 4.232"><metadata id="metadata4265"/><g id="lifeline" transform="translate(-36.248045,9.9160176)" style="display:inline"><g id="rect1263"><path style="color:#000;fill:#000;fill-opacity:0;stroke-width:.529167;stroke-linecap:round;stroke-linejoin:round;-inkscape-stroke:none" id="path3828" d="m 36.512501,-9.652092 h 2.645833 v 1.3229166 h -2.645833 z"/><path style="color:#000;fill:#000;stroke-linecap:round;stroke-linejoin:round;-inkscape-stroke:none" id="path3830" d="m 36.511719,-9.9160156 a 0.26460996,0.26460996 0 0 0 -0.263672,0.2636718 v 1.3222657 a 0.26460996,0.26460996 0 0 0 0.263672,0.265625 h 2.646484 a 0.26460996,0.26460996 0 0 0 0.265625,-0.265625 v -1.3222657 a 0.26460996,0.26460996 0 0 0 -0.265625,-0.2636718 z m 0.265625,0.5292968 h 2.117187 V -8.59375 h -2.117187 z"/></g><path style="color:#000;fill:#000;stroke-linecap:round;-inkscape-stroke:none" id="path1265" d="m 37.835937,-8.59375 a 0.2645835,0.2645835 0 0 0 -0.265625,0.2636719 v 0.7949219 a 0.2645835,0.2645835 0 0 0 0.265625,0.2636718 0.2645835,0.2645835 0 0 0 0.263672,-0.2636718 V -8.3300781 A 0.2645835,0.2645835 0 0 0 37.835937,-8.59375 Z"/><path style="color:#000;fill:#000;stroke-linecap:round;-inkscape-stroke:none" id="path1267" d="m 37.835937,-7.0058594 a 0.2645835,0.2645835 0 0 0 -0.265625,0.2636719 v 0.7949219 a 0.2645835,0.2645835 0 0 0 0.265625,0.2636719 0.2645835,0.2645835 0 0 0 0.263672,-0.2636719 v -0.7949219 a 0.2645835,0.2645835 0 0 0 -0.263672,-0.2636719 z"/></g></svg>