<svg xmlns="http://www.w3.org/2000/svg" xmlns:svg="http://www.w3.org/2000/svg" id="svg4268" width="8.002" height="15.982" version="1.1" viewBox="0 0 2.117 4.229"><metadata id="metadata4265"/><g id="behavior-execution-specification" transform="translate(-60.583984,4.5722659)" style="display:inline"><path style="color:#000;fill:#000;stroke-linecap:round;-inkscape-stroke:none" id="path1186" d="m 61.642578,-1.5078125 a 0.1852085,0.1852085 0 0 0 -0.183594,0.1855469 v 0.79296873 A 0.1852085,0.1852085 0 0 0 61.642578,-0.34375 0.1852085,0.1852085 0 0 0 61.828125,-0.52929687 V -1.3222656 a 0.1852085,0.1852085 0 0 0 -0.185547,-0.1855469 z"/><path style="color:#000;fill:#000;stroke-linecap:round;-inkscape-stroke:none" id="path1188" d="m 61.642578,-4.5722656 a 0.1852085,0.1852085 0 0 0 -0.183594,0.1855469 v 0.7949218 a 0.1852085,0.1852085 0 0 0 0.183594,0.1835938 0.1852085,0.1852085 0 0 0 0.185547,-0.1835938 v -0.7949218 a 0.1852085,0.1852085 0 0 0 -0.185547,-0.1855469 z"/><g id="rect1190"><path style="color:#000;fill:#000;fill-opacity:0;stroke-width:.529167;stroke-linecap:round;stroke-linejoin:round;-inkscape-stroke:none" id="path3796" d="m 60.849541,-3.5153227 h 1.587499 v 2.116667 h -1.587499 z"/><path style="color:#000;fill:#000;stroke-linecap:round;stroke-linejoin:round;-inkscape-stroke:none" id="path3798" d="m 60.849609,-3.7792969 a 0.26460996,0.26460996 0 0 0 -0.265625,0.2636719 v 2.1171875 a 0.26460996,0.26460996 0 0 0 0.265625,0.2636719 H 62.4375 a 0.26460996,0.26460996 0 0 0 0.263672,-0.2636719 V -3.515625 A 0.26460996,0.26460996 0 0 0 62.4375,-3.7792969 Z M 61.113281,-3.25 h 1.058594 v 1.5859375 h -1.058594 z"/></g></g></svg>