<svg xmlns="http://www.w3.org/2000/svg" xmlns:svg="http://www.w3.org/2000/svg" id="svg4268" width="15.997" height="16.085" version="1.1" viewBox="0 0 4.232 4.256"><metadata id="metadata4265"/><g id="c4-person" transform="translate(-103.1875,9.8125)" style="display:inline"><g id="rect427"><path style="color:#000;fill:#000;fill-opacity:0;stroke-width:.529167;stroke-linecap:round;stroke-linejoin:round;-inkscape-stroke:none" id="path1487" d="m 103.98125,-7.9375 h 2.64583 c 0.29316,0 0.52917,0.2360083 0.52917,0.5291666 v 1.0583333 c 0,0.2931583 -0.23601,0.5291667 -0.52917,0.5291667 h -2.64583 c -0.29316,0 -0.52917,-0.2360084 -0.52917,-0.5291667 v -1.0583333 c 0,-0.2931583 0.23601,-0.5291666 0.52917,-0.5291666 z"/><path style="color:#000;fill:#000;stroke-linecap:round;stroke-linejoin:round;-inkscape-stroke:none" id="path1489" d="m 103.98047,-8.2011719 c -0.43516,0 -0.79297,0.3578082 -0.79297,0.7929688 v 1.0585937 c 0,0.4351606 0.35781,0.7929688 0.79297,0.7929688 h 2.64648 c 0.43516,0 0.79297,-0.3578082 0.79297,-0.7929688 v -1.0585937 c 0,-0.4351606 -0.35781,-0.7929688 -0.79297,-0.7929688 z m 0,0.5273438 h 2.64648 c 0.15116,0 0.26563,0.1144695 0.26563,0.265625 v 1.0585937 c 0,0.1511555 -0.11447,0.2636719 -0.26563,0.2636719 h -2.64648 c -0.15116,0 -0.26367,-0.1125164 -0.26367,-0.2636719 v -1.0585937 c 0,-0.1511555 0.11251,-0.265625 0.26367,-0.265625 z"/></g><g id="path1252"><path style="color:#000;fill:#000;fill-opacity:0;stroke-width:.529167;stroke-linecap:round;stroke-linejoin:round;-inkscape-stroke:none" id="path1479" d="m 106.23263,-8.6221504 a 0.92604166,0.92604166 0 0 1 -0.92604,0.9260416 0.92604166,0.92604166 0 0 1 -0.92604,-0.9260416 0.92604166,0.92604166 0 0 1 0.92604,-0.9260417 0.92604166,0.92604166 0 0 1 0.92604,0.9260417 z"/><path style="color:#000;fill:#000;stroke-linecap:round;stroke-linejoin:round;-inkscape-stroke:none" id="path1481" d="m 105.30664,-9.8125 c -0.65443,0 -1.19141,0.5350236 -1.19141,1.1894531 0,0.6544296 0.53698,1.1914063 1.19141,1.1914063 0.65443,0 1.19141,-0.5369767 1.19141,-1.1914063 0,-0.6544295 -0.53698,-1.1894531 -1.19141,-1.1894531 z m 0,0.5292969 c 0.36845,0 0.66211,0.2917094 0.66211,0.6601562 0,0.3684468 -0.29366,0.6621094 -0.66211,0.6621094 -0.36845,0 -0.66211,-0.2936626 -0.66211,-0.6621094 0,-0.3684468 0.29366,-0.6601562 0.66211,-0.6601562 z"/></g><path style="color:#000;fill:#000;-inkscape-stroke:none" id="path1258" d="m 104.37891,-6.8789062 v 0.7929687 h 0.26367 v -0.7929687 z"/><path style="color:#000;fill:#000;-inkscape-stroke:none" id="path1261" d="m 105.96484,-6.8789062 v 0.7929687 h 0.26563 v -0.7929687 z"/></g></svg>