<svg xmlns="http://www.w3.org/2000/svg" xmlns:svg="http://www.w3.org/2000/svg" id="svg4268" width="8.002" height="15.974" version="1.1" viewBox="0 0 2.117 4.227"><metadata id="metadata4265"/><g id="execution-specification" transform="translate(-60.589842,9.9140628)" style="display:inline"><path style="color:#000;fill:#000;stroke-linecap:round;-inkscape-stroke:none" id="path1267-3" d="m 61.648437,-6.8515625 a 0.1852085,0.1852085 0 0 0 -0.185546,0.1855469 v 0.7929687 a 0.1852085,0.1852085 0 0 0 0.185546,0.1855469 0.1852085,0.1852085 0 0 0 0.185547,-0.1855469 v -0.7929687 a 0.1852085,0.1852085 0 0 0 -0.185547,-0.1855469 z"/><path style="color:#000;fill:#000;stroke-linecap:round;-inkscape-stroke:none" id="path1267-6" d="m 61.648437,-9.9140625 a 0.1852085,0.1852085 0 0 0 -0.185546,0.1855469 v 0.7929687 A 0.1852085,0.1852085 0 0 0 61.648437,-8.75 0.1852085,0.1852085 0 0 0 61.833984,-8.9355469 v -0.7929687 a 0.1852085,0.1852085 0 0 0 -0.185547,-0.1855469 z"/><g id="rect1263-5"><path style="color:#000;fill:#000;fill-opacity:0;stroke-width:.529167;stroke-linecap:round;stroke-linejoin:round;-inkscape-stroke:none" id="path3776" d="m 60.854168,-8.8583422 h 1.587499 v 2.1166671 h -1.587499 z"/><path style="color:#000;fill:#000;stroke-linecap:round;stroke-linejoin:round;-inkscape-stroke:none" id="path3778" d="m 60.853516,-9.1230469 a 0.26460996,0.26460996 0 0 0 -0.263672,0.265625 v 2.1152344 a 0.26460996,0.26460996 0 0 0 0.263672,0.265625 h 1.58789 a 0.26460996,0.26460996 0 0 0 0.265625,-0.265625 v -2.1152344 a 0.26460996,0.26460996 0 0 0 -0.265625,-0.265625 z m 0.265625,0.5292969 h 1.058593 v 1.5878906 h -1.058593 z"/></g></g></svg>