<svg xmlns="http://www.w3.org/2000/svg" xmlns:svg="http://www.w3.org/2000/svg" id="svg4268" width="16.004" height="15.997" version="1.1" viewBox="0 0 4.234 4.232"><metadata id="metadata4265"/><g id="activity" transform="translate(-1.3222656,-51.593748)" style="display:inline"><g id="rect1031-6"><path style="color:#000;fill:#000;fill-opacity:0;stroke-width:.529167;stroke-linecap:round;stroke-linejoin:round;-inkscape-stroke:none" id="path3944" d="M 1.5875,51.858334 H 5.2916666 V 55.5625 H 1.5875 Z"/><path style="color:#000;fill:#000;stroke-linecap:round;stroke-linejoin:round;-inkscape-stroke:none" id="path3946" d="m 1.5878906,51.59375 a 0.26460996,0.26460996 0 0 0 -0.265625,0.263672 V 55.5625 a 0.26460996,0.26460996 0 0 0 0.265625,0.263672 h 3.703125 A 0.26460996,0.26460996 0 0 0 5.5566406,55.5625 V 51.857422 A 0.26460996,0.26460996 0 0 0 5.2910156,51.59375 Z m 0.2636719,0.529297 h 3.1757812 v 3.175781 H 1.8515625 Z"/></g><g id="rect1312-5"><path style="color:#000;fill:#000;fill-opacity:0;stroke-width:.370417;-inkscape-stroke:none" id="path3936" d="m 2.7781249,53.445835 h 1.3229163 c 0.2198688,0 0.396875,0.177006 0.396875,0.396875 v 0.264582 c 0,0.219869 -0.1770062,0.396875 -0.396875,0.396875 H 2.7781249 c -0.2198687,0 -0.396875,-0.177006 -0.396875,-0.396875 V 53.84271 c 0,-0.219869 0.1770063,-0.396875 0.396875,-0.396875 z"/><path style="color:#000;fill:#000;-inkscape-stroke:none" id="path3938" d="m 2.7773438,53.259766 c -0.3192704,0 -0.5820313,0.262761 -0.5820313,0.582031 v 0.265625 c 0,0.31927 0.2627609,0.582031 0.5820313,0.582031 h 1.3242187 c 0.3192703,0 0.5820312,-0.262761 0.5820312,-0.582031 v -0.265625 c 0,-0.31927 -0.2627609,-0.582031 -0.5820312,-0.582031 z m 0,0.371093 h 1.3242187 c 0.1204667,0 0.2109375,0.09047 0.2109375,0.210938 v 0.265625 c 0,0.120467 -0.090471,0.210937 -0.2109375,0.210937 H 2.7773438 c -0.1204668,0 -0.2109375,-0.09047 -0.2109375,-0.210937 v -0.265625 c 0,-0.120467 0.090471,-0.210938 0.2109375,-0.210938 z"/></g><path style="color:#000;fill:#000;-inkscape-stroke:none" id="path1035-7-2-2" d="M 3.2539063,52.121094 3.2519531,52.3125 3.0976563,52.466797 H 1.8515625 v 0.371094 H 3.2519531 L 3.6210938,52.46875 3.625,52.125 Z"/></g></svg>