<svg xmlns="http://www.w3.org/2000/svg" xmlns:svg="http://www.w3.org/2000/svg" id="svg4268" width="15.007" height="15.007" version="1.1" viewBox="0 0 3.971 3.97"><metadata id="metadata4265"/><g id="control-flow" transform="translate(-1.5861557,-44.322266)" style="display:inline"><g id="path4594-0"><path style="color:#000;fill:#000;fill-opacity:0;stroke-width:.529167;stroke-linecap:round;stroke-linejoin:round;-inkscape-stroke:none" id="path4038" d="M 3.4395833,45.116658 5.2916664,44.587492 4.7624997,46.439575"/><path style="color:#000;fill:#000;stroke-linecap:round;stroke-linejoin:round;-inkscape-stroke:none" id="path4040" d="m 5.21875,44.333984 -1.8515625,0.527344 a 0.2645835,0.2645835 0 0 0 -0.1816406,0.328125 0.2645835,0.2645835 0 0 0 0.3261719,0.181641 L 4.90625,44.972656 4.5078125,46.367187 a 0.2645835,0.2645835 0 0 0 0.1816406,0.326172 0.2645835,0.2645835 0 0 0 0.328125,-0.18164 L 5.546875,44.660156 A 0.26460996,0.26460996 0 0 0 5.21875,44.333984 Z"/></g><g id="path4598-1-3"><path style="color:#000;fill:#000;fill-opacity:0;stroke-width:.529167;stroke-linecap:round;-inkscape-stroke:none" id="path4030" d="m 1.8520837,48.027076 3.439583,-3.439584"/><path style="color:#000;fill:#000;stroke-linecap:round;-inkscape-stroke:none" id="path4032" d="m 5.2910156,44.322266 a 0.2645835,0.2645835 0 0 0 -0.1855469,0.07813 l -3.4414062,3.439453 a 0.2645835,0.2645835 0 0 0 0,0.375 0.2645835,0.2645835 0 0 0 0.375,0 l 3.4394531,-3.439453 a 0.2645835,0.2645835 0 0 0 0,-0.375 0.2645835,0.2645835 0 0 0 -0.1875,-0.07813 z"/></g></g></svg>