<svg xmlns="http://www.w3.org/2000/svg" xmlns:svg="http://www.w3.org/2000/svg" id="svg4268" width="16" height="14" version="1.1" viewBox="0 0 4.233 3.704"><metadata id="metadata4265"/><g id="state" transform="translate(-35.71875,-4.8999592)" style="display:inline"><path style="color:#000;fill:#000;stroke-width:2;stroke-linecap:round;stroke-linejoin:round;-inkscape-stroke:none" id="rect1037" d="m 139,18.519531 c -2.216,0 -4,1.784 -4,4 v 6 c 0,2.216 1.784,4 4,4 h 8 c 2.216,0 4,-1.784 4,-4 v -6 c 0,-2.216 -1.784,-4 -4,-4 z m 0,2 h 8 c 1.108,0 2,0.892 2,2 v 6 c 0,1.108 -0.892,2 -2,2 h -8 c -1.108,0 -2,-0.892 -2,-2 v -6 c 0,-1.108 0.892,-2 2,-2 z" transform="scale(0.26458333)"/><path style="color:#000;fill:#000;-inkscape-stroke:none" id="path1046" d="M 36.248047,6.3027344 V 6.671875 h 3.175781 V 6.3027344 Z"/></g></svg>