<svg xmlns="http://www.w3.org/2000/svg" xmlns:svg="http://www.w3.org/2000/svg" id="svg4268" width="16" height="15.998" version="1.1" viewBox="0 0 4.233 4.233"><metadata id="metadata4265"/><g id="dependency" transform="translate(-17.19846,-9.9270897)" style="display:inline"><g id="path4594-6"><path style="color:#000;fill:#000;fill-opacity:0;stroke-width:.529167;stroke-linecap:round;stroke-linejoin:round;-inkscape-stroke:none" id="path3674" d="M 19.314583,10.720825 21.166666,10.191659 20.6375,12.043742"/><path style="color:#000;fill:#000;stroke-linecap:round;stroke-linejoin:round;-inkscape-stroke:none" id="path3676" d="m 21.09375,9.9375 -1.851563,0.529297 a 0.2645835,0.2645835 0 0 0 -0.18164,0.326172 0.2645835,0.2645835 0 0 0 0.326172,0.18164 l 1.394531,-0.398437 -0.398438,1.394531 a 0.2645835,0.2645835 0 0 0 0.181641,0.328125 0.2645835,0.2645835 0 0 0 0.328125,-0.18164 l 0.529297,-1.853516 A 0.26460996,0.26460996 0 0 0 21.09375,9.9375 Z"/></g><g id="path4598-1"><path style="color:#000;fill:#000;fill-opacity:0;stroke-width:.529167;stroke-linecap:round;stroke-dasharray:.529167,1.05833;-inkscape-stroke:none" id="path3666" d="m 17.4625,13.895826 3.439583,-3.439584"/><path style="color:#000;fill:#000;stroke-linecap:round;stroke-dasharray:.529167,1.05833;-inkscape-stroke:none" id="path3668" d="m 20.714844,10.269531 -0.07227,0.07227 a 0.2645835,0.2645835 0 0 0 0,0.373047 0.2645835,0.2645835 0 0 0 0.375,0 l 0.07227,-0.07227 a 0.2645835,0.2645835 0 0 0 0,-0.373047 0.2645835,0.2645835 0 0 0 -0.375,0 z m -0.632813,0.742188 a 0.2645835,0.2645835 0 0 0 -0.1875,0.07813 l -0.375,0.373047 a 0.2645835,0.2645835 0 0 0 0,0.375 0.2645835,0.2645835 0 0 0 0.375,0 l 0.375,-0.375 a 0.2645835,0.2645835 0 0 0 0,-0.373047 0.2645835,0.2645835 0 0 0 -0.1875,-0.07813 z m -1.123047,1.123047 a 0.2645835,0.2645835 0 0 0 -0.1875,0.07813 l -0.373047,0.373047 a 0.2645835,0.2645835 0 0 0 0,0.375 0.2645835,0.2645835 0 0 0 0.373047,0 l 0.375,-0.375 a 0.2645835,0.2645835 0 0 0 0,-0.373047 0.2645835,0.2645835 0 0 0 -0.1875,-0.07813 z m -1.123047,1.123047 a 0.2645835,0.2645835 0 0 0 -0.185546,0.07617 l -0.375,0.375 a 0.2645835,0.2645835 0 0 0 0,0.373047 0.2645835,0.2645835 0 0 0 0.375,0 l 0.373046,-0.373047 a 0.2645835,0.2645835 0 0 0 0,-0.375 0.2645835,0.2645835 0 0 0 -0.1875,-0.07617 z"/></g></g></svg>