<svg xmlns="http://www.w3.org/2000/svg" xmlns:svg="http://www.w3.org/2000/svg" id="svg4268" width="16.006" height="7.993" version="1.1" viewBox="0 0 4.235 2.115"><metadata id="metadata4265"/><g id="transition" transform="translate(-35.718748,-10.986228)" style="display:inline"><path style="color:#000;fill:#000;stroke-linecap:round;stroke-linejoin:round;-inkscape-stroke:none" id="path1019-5" d="m 38.5,11.023438 a 0.2645835,0.2645835 0 0 0 -0.361328,0.08984 0.2645835,0.2645835 0 0 0 0.08984,0.363282 l 0.943359,0.566406 -0.943359,0.568359 a 0.2645835,0.2645835 0 0 0 -0.08984,0.361328 0.2645835,0.2645835 0 0 0 0.361328,0.0918 l 1.324219,-0.792969 a 0.26460996,0.26460996 0 0 0 0,-0.455078 z"/><path style="color:#000;fill:#000;stroke-linecap:round;stroke-linejoin:round;-inkscape-stroke:none" id="path1021-6" d="m 35.982422,11.779297 a 0.2645835,0.2645835 0 0 0 -0.263672,0.263672 0.2645835,0.2645835 0 0 0 0.263672,0.265625 h 3.441406 A 0.2645835,0.2645835 0 0 0 39.6875,12.042969 0.2645835,0.2645835 0 0 0 39.423828,11.779297 Z"/></g></svg>