<svg xmlns="http://www.w3.org/2000/svg" xmlns:svg="http://www.w3.org/2000/svg" id="svg4268" width="15.997" height="16.004" version="1.1" viewBox="0 0 4.232 4.234"><metadata id="metadata4265"/><g id="state-machine" transform="translate(-43.656248,-9.7890625)" style="display:inline"><g id="rect1031-6-6"><path style="color:#000;fill:#000;fill-opacity:0;stroke-width:.529167;stroke-linecap:round;stroke-linejoin:round;-inkscape-stroke:none" id="path3970" d="M 43.920834,10.054167 H 47.625 v 3.704166 h -3.704166 z"/><path style="color:#000;fill:#000;stroke-linecap:round;stroke-linejoin:round;-inkscape-stroke:none" id="path3972" d="M 43.919922,9.7890625 A 0.26460996,0.26460996 0 0 0 43.65625,10.054688 v 3.703125 a 0.26460996,0.26460996 0 0 0 0.263672,0.265625 H 47.625 a 0.26460996,0.26460996 0 0 0 0.263672,-0.265625 V 10.054688 A 0.26460996,0.26460996 0 0 0 47.625,9.7890625 Z m 0.265625,0.5292965 h 3.175781 v 3.175782 h -3.175781 z"/></g><path style="color:#000;fill:#000;-inkscape-stroke:none" id="path1035-7-2" d="m 45.587891,10.316406 -0.002,0.19336 -0.154296,0.152343 h -1.246094 v 0.371094 h 1.40039 l 0.367188,-0.36914 0.0059,-0.34375 z"/><path style="color:#000;fill:#000;-inkscape-stroke:none" id="rect1356" d="m 45.111328,11.457031 c -0.31927,0 -0.582031,0.262761 -0.582031,0.582032 v 0.529296 c 0,0.319271 0.262761,0.582032 0.582031,0.582032 h 1.322266 c 0.31927,0 0.582031,-0.262761 0.582031,-0.582032 v -0.529296 c 0,-0.319271 -0.262761,-0.582032 -0.582031,-0.582032 z m 0,0.369141 h 1.322266 c 0.120466,0 0.21289,0.09242 0.21289,0.212891 v 0.529296 c 0,0.120467 -0.09242,0.210938 -0.21289,0.210938 h -1.322266 c -0.120467,0 -0.210937,-0.09047 -0.210937,-0.210938 v -0.529296 c 0,-0.120467 0.09047,-0.212891 0.210937,-0.212891 z"/><path style="color:#000;fill:#000;-inkscape-stroke:none" id="path1358" d="m 44.714844,11.964844 v 0.265625 h 2.117187 v -0.265625 z"/></g></svg>