<svg xmlns="http://www.w3.org/2000/svg" xmlns:svg="http://www.w3.org/2000/svg" id="svg4268" width="15.997" height="16.004" version="1.1" viewBox="0 0 4.232 4.234"><metadata id="metadata4265"/><g id="unsafe-control-action" transform="translate(-103.1875,-44.449219)" style="display:inline"><g id="rect715"><path style="color:#000;fill:#000;fill-opacity:0;stroke-width:.529167;stroke-linecap:round;stroke-linejoin:round;-inkscape-stroke:none" id="path2169" d="m 103.45208,44.714584 h 3.70417 v 3.704167 h -3.70417 z"/><path style="color:#000;fill:#000;stroke-linecap:round;stroke-linejoin:round;-inkscape-stroke:none" id="path2171" d="m 103.45117,44.449219 a 0.26460996,0.26460996 0 0 0 -0.26367,0.265625 v 3.703125 a 0.26460996,0.26460996 0 0 0 0.26367,0.265625 h 3.70508 a 0.26460996,0.26460996 0 0 0 0.26367,-0.265625 v -3.703125 a 0.26460996,0.26460996 0 0 0 -0.26367,-0.265625 z m 0.26563,0.529297 h 3.17578 v 3.175781 h -3.17578 z"/></g><g id="text687-7" aria-label="U" transform="scale(1.1452508,0.87317119)" style="font-weight:700;font-size:2.46429px;line-height:1.25;-inkscape-font-specification:'sans-serif Bold';letter-spacing:0;word-spacing:0;display:inline;stroke-width:.231026"><path style="font-size:3.69642px;font-family:FreeMono;-inkscape-font-specification:'FreeMono Bold'" id="path1611" d="m 91.007427,53.775745 v -1.700209 h 0.532444 v 1.833771 q 0,0.202148 0.102878,0.317661 0.102879,0.113708 0.285174,0.113708 0.182294,0 0.285173,-0.113708 0.102878,-0.115513 0.102878,-0.317661 v -1.833771 h 0.532444 v 1.700209 q 0,0.548687 -0.218392,0.797762 -0.218392,0.249076 -0.702103,0.249076 -0.481907,0 -0.702104,-0.249076 -0.218392,-0.249075 -0.218392,-0.797762 z"/></g></g></svg>