<svg xmlns="http://www.w3.org/2000/svg" xmlns:svg="http://www.w3.org/2000/svg" id="svg4268" width="16.004" height="15.908" version="1.1" viewBox="0 0 4.234 4.209"><metadata id="metadata4265"/><g id="ellipse" transform="translate(-25.134766,9.9160156)" style="display:inline"><g id="path910"><path style="color:#000;fill:#000;fill-opacity:0;stroke-width:.529167;stroke-linecap:round;stroke-linejoin:round;-inkscape-stroke:none" id="path3488" d="M 29.104166,-7.81182 A 1.8520833,1.8402717 0 0 1 27.252083,-5.9715483 1.8520833,1.8402717 0 0 1 25.399999,-7.81182 1.8520833,1.8402717 0 0 1 27.252083,-9.6520917 1.8520833,1.8402717 0 0 1 29.104166,-7.81182 Z"/><path style="color:#000;fill:#000;stroke-linecap:round;stroke-linejoin:round;-inkscape-stroke:none" id="path3490" d="m 27.251953,-9.9160156 c -1.164956,0 -2.117187,0.9432534 -2.117187,2.1035156 0,1.1602622 0.952231,2.1054687 2.117187,2.1054688 1.164956,0 2.117188,-0.9452066 2.117188,-2.1054688 0,-1.1602622 -0.952232,-2.1035156 -2.117188,-2.1035156 z m 0,0.5292968 c 0.880797,0 1.587891,0.701775 1.587891,1.5742188 0,0.8724438 -0.707094,1.5761719 -1.587891,1.5761719 -0.880797,0 -1.587891,-0.7037281 -1.587891,-1.5761719 0,-0.8724438 0.707094,-1.5742188 1.587891,-1.5742188 z"/></g></g></svg>