<svg xmlns="http://www.w3.org/2000/svg" xmlns:svg="http://www.w3.org/2000/svg" id="svg4268" width="15.993" height="15.996" version="1.1" viewBox="0 0 4.231 4.232"><metadata id="metadata4265"/><g id="trace" transform="translate(-93.662327,9.788145)" style="display:inline"><path style="color:#000;fill:#000;stroke-width:.529167;stroke-linecap:round;stroke-linejoin:round;-inkscape-stroke:none" id="path4594-6-2-0" d="m 97.613688,-9.7876961 a 0.26460979,0.26460979 0 0 0 -0.05859,0.00977 l -1.851563,0.529297 a 0.26492937,0.26492937 0 1 0 0.144531,0.5097656 l 1.394532,-0.3984375 -0.398438,1.3945313 a 0.26492954,0.26492954 0 1 0 0.509766,0.1445312 l 0.529297,-1.8515625 a 0.26460979,0.26460979 0 0 0 -0.269535,-0.3378951 z"/><g id="text150-2" aria-label="T" style="font-weight:700;font-size:2.11667px;line-height:1.25;-inkscape-font-specification:'sans-serif Bold';letter-spacing:0;word-spacing:0;stroke-width:.264583"><path style="font-size:2.82223px;font-family:FreeMono;-inkscape-font-specification:'FreeMono Bold'" id="path1665" d="M 97.37071,-5.5569258 H 96.964188 V -7.2588077 H 96.44191 v -0.3555348 h 1.451078 v 0.3555348 H 97.37071 Z"/></g><g id="path4598-1-2-10"><path style="color:#000;fill:#000;fill-opacity:0;stroke-width:.529167;stroke-linecap:round;stroke-dasharray:.529167,1.05833;-inkscape-stroke:none" id="path2528" d="m 93.927084,-5.8208333 3.439583,-3.4395839"/><path style="color:#000;fill:#000;stroke-linecap:round;stroke-dasharray:.529167,1.05833;-inkscape-stroke:none" id="path2530" d="m 97.367187,-9.5253906 a 0.2645835,0.2645835 0 0 0 -0.1875,0.078125 L 97.107422,-9.375 a 0.2645835,0.2645835 0 0 0 0,0.3730469 0.2645835,0.2645835 0 0 0 0.375,0 l 0.07227,-0.072266 a 0.2645835,0.2645835 0 0 0 0,-0.3730468 0.2645835,0.2645835 0 0 0 -0.1875,-0.078125 z m -1.007812,0.8984375 -0.375,0.3730468 a 0.2645835,0.2645835 0 0 0 0,0.3750001 0.2645835,0.2645835 0 0 0 0.375,0 l 0.375,-0.3750001 a 0.2645835,0.2645835 0 0 0 0,-0.3730468 0.2645835,0.2645835 0 0 0 -0.375,0 z m -1.123047,1.1230469 -0.373047,0.3730468 a 0.2645835,0.2645835 0 0 0 0,0.375 0.2645835,0.2645835 0 0 0 0.373047,0 l 0.375,-0.375 a 0.2645835,0.2645835 0 0 0 0,-0.3730468 0.2645835,0.2645835 0 0 0 -0.375,0 z m -1.123047,1.1210937 -0.373047,0.375 a 0.2645835,0.2645835 0 0 0 0,0.375 0.2645835,0.2645835 0 0 0 0.373047,0 l 0.375,-0.375 a 0.2645835,0.2645835 0 0 0 0,-0.375 0.2645835,0.2645835 0 0 0 -0.375,0 z"/></g></g></svg>