<svg xmlns="http://www.w3.org/2000/svg" xmlns:svg="http://www.w3.org/2000/svg" id="svg4268" width="14.003" height="14.003" version="1.1" viewBox="0 0 3.705 3.705"><metadata id="metadata4265"/><g id="pseudostate" transform="translate(-51.871094,-4.8964844)" style="display:inline"><g id="path1192-7"><path style="color:#000;fill:#000;fill-opacity:0;stroke-width:.529167;stroke-linecap:round;stroke-linejoin:round;-inkscape-stroke:none" id="path4146" d="m 55.310908,6.748529 a 1.5875,1.5875 0 0 1 -1.5875,1.5874999 1.5875,1.5875 0 0 1 -1.5875,-1.5874999 1.5875,1.5875 0 0 1 1.5875,-1.5875 1.5875,1.5875 0 0 1 1.5875,1.5875 z"/><path style="color:#000;fill:#000;stroke-linecap:round;stroke-linejoin:round;-inkscape-stroke:none" id="path4148" d="m 53.722656,4.8964844 c -1.019742,0 -1.851562,0.8318199 -1.851562,1.8515625 0,1.0197425 0.83182,1.8535156 1.851562,1.8535156 1.019743,0 1.853516,-0.8337731 1.853516,-1.8535156 0,-1.0197426 -0.833773,-1.8515625 -1.853516,-1.8515625 z m 0,0.5292968 c 0.73376,0 1.324219,0.5885059 1.324219,1.3222657 0,0.7337597 -0.590459,1.3242187 -1.324219,1.3242187 -0.73376,0 -1.322265,-0.590459 -1.322265,-1.3242187 0,-0.7337598 0.588505,-1.3222657 1.322265,-1.3222657 z"/></g><path style="color:#000;fill:#000;stroke-linecap:square;-inkscape-stroke:none" id="path1083" d="M 52.996094,6.0371094 V 6.2226562 7.28125 7.4667969 h 0.371093 V 7.28125 6.2226562 6.0371094 Z"/><path style="color:#000;fill:#000;stroke-linecap:square;-inkscape-stroke:none" id="path1085" d="M 54.054687,6.0371094 V 6.2226562 7.28125 7.4667969 h 0.369141 V 7.28125 6.2226562 6.0371094 Z"/><path style="color:#000;fill:#000;stroke-linecap:square;-inkscape-stroke:none" id="path1087" d="M 53.259766,6.5664062 V 6.9375 h 0.185546 0.529297 0.185547 V 6.5664062 h -0.185547 -0.529297 z"/></g></svg>