<svg xmlns="http://www.w3.org/2000/svg" xmlns:svg="http://www.w3.org/2000/svg" id="svg4268" width="16.219" height="15.997" version="1.1" viewBox="0 0 4.291 4.232"><metadata id="metadata4265"/><g id="composite-association" transform="translate(-85.687899,-4.7630553)" style="display:inline"><g id="path4594-09-7"><path style="color:#000;fill:#000;fill-opacity:0;stroke-width:.529167;stroke-linecap:round;stroke-linejoin:round;-inkscape-stroke:none" id="path2494" d="m 87.812262,8.2316194 -1.860268,0.499631 0.558569,-1.843429"/><path style="color:#000;fill:#000;stroke-linecap:round;stroke-linejoin:round;-inkscape-stroke:none" id="path2496" d="m 86.587891,6.6347656 a 0.2645835,0.2645835 0 0 0 -0.330079,0.1757813 l -0.558593,1.84375 a 0.26460996,0.26460996 0 0 0 0.322265,0.3320312 l 1.859375,-0.5 a 0.2645835,0.2645835 0 0 0 0.1875,-0.3242187 0.2645835,0.2645835 0 0 0 -0.324218,-0.1855469 L 86.34375,8.3535156 86.763672,6.9648437 A 0.2645835,0.2645835 0 0 0 86.587891,6.6347656 Z"/></g><path style="color:#000;fill:#000;-inkscape-stroke:none" id="path4598-3-9" d="m 87.410156,6.9570312 -1.210937,1.2207032 0.375,0.3730469 1.21289,-1.2207032 z"/><g id="path1218-8-8-2"><path style="color:#000;fill:#000;stroke-width:.529167;stroke-linejoin:round;-inkscape-stroke:none" id="path2480" d="m 87.59849,7.1437504 1.852083,-0.264584 0.264583,-1.8520831 -1.852083,0.2645834 z"/><path style="color:#000;fill:#000;stroke-linejoin:round;-inkscape-stroke:none" id="path2482" d="m 89.677734,4.765625 -1.851562,0.2636719 a 0.26460996,0.26460996 0 0 0 -0.22461,0.2246093 L 87.335937,7.1054687 A 0.26460996,0.26460996 0 0 0 87.636719,7.40625 l 1.851562,-0.265625 a 0.26460996,0.26460996 0 0 0 0.22461,-0.2246094 L 89.976562,5.0644531 A 0.26460996,0.26460996 0 0 0 89.677734,4.765625 Z m -0.27539,0.5742187 -0.185547,1.3046875 -1.304688,0.1855469 0.185547,-1.3046875 z"/></g></g></svg>