<svg xmlns="http://www.w3.org/2000/svg" xmlns:svg="http://www.w3.org/2000/svg" id="svg4268" width="16" height="12.003" version="1.1" viewBox="0 0 4.233 3.176"><metadata id="metadata4265"/><g id="send-signal-action" transform="translate(-9.2597636,-44.85156)" style="display:inline;stroke-width:.529167;stroke-miterlimit:4;stroke-dasharray:none"><g id="path1257"><path style="color:#000;fill:#000;fill-opacity:0;stroke-linejoin:round;-inkscape-stroke:none" id="path4078" d="m 9.5249999,45.116657 h 2.9104171 l 0.79375,1.322916 -0.79375,1.322917 H 9.5249999 Z"/><path style="color:#000;fill:#000;stroke-linejoin:round;-inkscape-stroke:none" id="path4080" d="m 9.5253906,44.851562 a 0.26460996,0.26460996 0 0 0 -0.265625,0.265625 v 2.644532 a 0.26460996,0.26460996 0 0 0 0.265625,0.265625 h 2.9101564 a 0.26460996,0.26460996 0 0 0 0.226562,-0.128907 l 0.792969,-1.322265 a 0.26460996,0.26460996 0 0 0 0,-0.273438 l -0.792969,-1.322265 a 0.26460996,0.26460996 0 0 0 -0.226562,-0.128907 z m 0.2636719,0.529297 h 2.4960935 l 0.634766,1.058594 -0.634766,1.058594 H 9.7890625 Z"/></g></g></svg>