<svg xmlns="http://www.w3.org/2000/svg" xmlns:svg="http://www.w3.org/2000/svg" id="svg4268" width="13.996" height="14.003" version="1.1" viewBox="0 0 3.703 3.705"><metadata id="metadata4265"/><g id="flow-final-node" transform="translate(-25.386719,-34.009766)" style="display:inline"><g id="path1192-9"><path style="color:#000;fill:#000;fill-opacity:0;stroke-width:.529167;stroke-linecap:round;stroke-linejoin:round;-inkscape-stroke:none" id="path3862" d="m 28.825901,35.862202 a 1.5875,1.5875 0 0 1 -1.5875,1.5875 1.5875,1.5875 0 0 1 -1.5875,-1.5875 1.5875,1.5875 0 0 1 1.5875,-1.5875 1.5875,1.5875 0 0 1 1.5875,1.5875 z"/><path style="color:#000;fill:#000;stroke-linecap:round;stroke-linejoin:round;-inkscape-stroke:none" id="path3864" d="m 27.238281,34.009766 c -1.019742,0 -1.851562,0.83182 -1.851562,1.851562 0,1.019743 0.83182,1.853516 1.851562,1.853516 1.019743,0 1.851563,-0.833773 1.851563,-1.853516 0,-1.019742 -0.83182,-1.851562 -1.851563,-1.851562 z m 0,0.529296 c 0.73376,0 1.322266,0.588506 1.322266,1.322266 0,0.73376 -0.588506,1.324219 -1.322266,1.324219 -0.73376,0 -1.322265,-0.590459 -1.322265,-1.324219 0,-0.73376 0.588505,-1.322266 1.322265,-1.322266 z"/></g><path style="color:#000;fill:#000;-inkscape-stroke:none" id="path1213" d="m 28.123047,34.611328 -2.117188,2.115234 0.375,0.375 2.117188,-2.117187 z"/><path style="color:#000;fill:#000;-inkscape-stroke:none" id="path1215" d="m 26.380859,34.611328 -0.375,0.373047 2.117188,2.117187 0.375,-0.375 z"/></g></svg>