<svg xmlns="http://www.w3.org/2000/svg" xmlns:svg="http://www.w3.org/2000/svg" id="svg4268" width="16.011" height="16.052" version="1.1" viewBox="0 0 4.236 4.247"><metadata id="metadata4265"/><g id="refine" transform="translate(-69.849827,4.5025476)" style="display:inline"><path style="color:#000;fill:#000;stroke-width:.529167;stroke-linecap:round;stroke-linejoin:round;-inkscape-stroke:none" id="path4594-6-2-40" d="m 73.806034,-4.5021035 a 0.26460979,0.26460979 0 0 0 -0.0586,0.00977 l -1.851565,0.5292969 A 0.26492937,0.26492937 0 1 0 72.0404,-3.453271 l 1.394534,-0.3984375 -0.39844,1.3945313 a 0.26493146,0.26493146 0 1 0 0.50977,0.1445312 l 0.52929,-1.8515625 a 0.26460979,0.26460979 0 0 0 -0.26953,-0.3378906 z"/><g id="text150-9" aria-label="R" style="font-weight:700;font-size:2.82223px;line-height:1.25;-inkscape-font-specification:'sans-serif Bold';letter-spacing:0;word-spacing:0;stroke-width:.264583"><path style="font-family:FreeMono;-inkscape-font-specification:'FreeMono Bold'" id="path1662" d="m 73.469395,-1.2268479 q 0.06063,0.012402 0.104731,0.057878 0.04548,0.044097 0.110244,0.17363329 l 0.372071,0.74000857 h -0.446486 l -0.248047,-0.51952185 q -0.01103,-0.0220487 -0.02894,-0.0606339 Q 73.224104,-1.068373 73.076653,-1.068373 h -0.129536 v 0.81304476 H 72.540595 V -2.312745 h 0.587046 q 0.396876,0 0.569131,0.1405603 0.173633,0.1405603 0.173633,0.4575099 0,0.2122185 -0.103353,0.3376203 -0.103353,0.1254019 -0.297657,0.1502066 z m -0.522278,-0.7441427 v 0.5608631 h 0.191548 q 0.166743,0 0.238401,-0.064768 0.07304,-0.066146 0.07304,-0.2163526 0,-0.1502066 -0.07166,-0.2149746 -0.07166,-0.064768 -0.239779,-0.064768 z"/></g><path style="color:#000;fill:#000;stroke-linecap:round;stroke-dasharray:.529167,1.05833;-inkscape-stroke:none" id="path4598-1-2-0" d="m 73.554687,-4.2324219 a 0.2645835,0.2645835 0 0 0 -0.1875,0.076172 l -0.07227,0.072266 a 0.2645835,0.2645835 0 0 0 0,0.375 0.2645835,0.2645835 0 0 0 0.375,0 l 0.07227,-0.072266 a 0.2645835,0.2645835 0 0 0 0,-0.375 0.2645835,0.2645835 0 0 0 -0.1875,-0.076172 z m -1.007812,0.8964844 -0.375,0.375 a 0.2645835,0.2645835 0 0 0 0,0.3730469 0.2645835,0.2645835 0 0 0 0.375,0 l 0.375,-0.3730469 a 0.2645835,0.2645835 0 0 0 0,-0.375 0.2645835,0.2645835 0 0 0 -0.375,0 z m -1.123047,1.1230469 -0.373047,0.375 a 0.2645835,0.2645835 0 0 0 0,0.3730469 0.2645835,0.2645835 0 0 0 0.373047,0 l 0.375,-0.3730469 a 0.2645835,0.2645835 0 0 0 0,-0.375 0.2645835,0.2645835 0 0 0 -0.375,0 z m -1.123047,1.1230469 -0.373047,0.37304683 a 0.2645835,0.2645835 0 0 0 0,0.37499999 0.2645835,0.2645835 0 0 0 0.373047,0 l 0.375,-0.37499999 a 0.2645835,0.2645835 0 0 0 0,-0.37304683 0.2645835,0.2645835 0 0 0 -0.375,0 z"/></g></svg>