<svg xmlns="http://www.w3.org/2000/svg" xmlns:svg="http://www.w3.org/2000/svg" id="svg4268" width="15.007" height="15.996" version="1.1" viewBox="0 0 3.971 4.232"><metadata id="metadata4265"/><g style="display:inline" id="proxyport" transform="translate(-70.025569,-19.074788)"><g id="path908-1"><path style="color:#000;fill:#000;fill-opacity:0;stroke-width:.424742;stroke-linecap:round;stroke-linejoin:round;-inkscape-stroke:none" id="path2448" d="m 71.562552,19.818019 v 2.842817 l 2.221091,-1e-6 v -2.842816 z"/><path style="color:#000;fill:#000;stroke-linecap:round;stroke-linejoin:round;-inkscape-stroke:none" id="path2450" d="m 71.5625,19.605469 a 0.21239224,0.21239224 0 0 0 -0.212891,0.21289 v 2.841797 a 0.21239224,0.21239224 0 0 0 0.212891,0.212891 h 2.220703 a 0.21239224,0.21239224 0 0 0 0.212891,-0.212891 v -2.841797 a 0.21239224,0.21239224 0 0 0 -0.212891,-0.21289 z m 0.212891,0.425781 h 1.794921 v 2.417969 h -1.794921 z"/></g><path style="color:#000;fill:#000;stroke-width:.529167;stroke-linecap:square;stroke-linejoin:round;-inkscape-stroke:none" id="rect4893-97-8" d="m 70.025569,19.074788 v 0.529167 h 1.323951 v 3.176033 h -1.323951 v 0.5271 h 1.5875 a 0.26460981,0.26460981 0 0 0 0.263549,-0.26355 v -3.7052 a 0.26460981,0.26460981 0 0 0 -0.263549,-0.26355 z"/></g></svg>