<svg xmlns="http://www.w3.org/2000/svg" xmlns:svg="http://www.w3.org/2000/svg" id="svg4268" width="16" height="14" version="1.1" viewBox="0 0 4.233 3.704"><metadata id="metadata4265"/><g id="view-editor" transform="translate(-35.71875,4.4979488)" style="display:inline"><path style="color:#000;fill:#000;fill-opacity:.5;stroke-width:.370417;-inkscape-stroke:none" id="rect1195" d="m 38.893749,-4.2333331 h 0.264583 c 0.293158,0 0.529167,0.2360082 0.529167,0.5291664 v 2.1166671 c 0,0.2931582 -0.236009,0.5291664 -0.529167,0.5291664 h -0.264583 c -0.293159,0 -0.529167,-0.2360082 -0.529167,-0.5291664 v -2.1166671 c 0,-0.2931582 0.236008,-0.5291664 0.529167,-0.5291664 z"/><path style="color:#000;fill:#000;stroke-width:.529167;stroke-linecap:round;stroke-linejoin:round;-inkscape-stroke:none" id="rect1037-3" d="m 36.777085,-4.4979488 c -0.586317,0 -1.058334,0.4720166 -1.058334,1.0583333 0.0066,0.8675915 -10e-7,2.6458655 -10e-7,2.6458655 h 4.233335 c 3e-6,-0.8871722 2e-6,-1.6695606 2e-6,-2.6458655 0,-0.5863167 -0.472017,-1.0583333 -1.058334,-1.0583333 z m 0,0.5291666 h 2.116666 c 0.293159,0 0.529167,0.2360084 0.529167,0.5291667 -0.0022,0.7055502 -1e-6,2.1166988 -0.0044,2.1166667 l -3.170601,3.21e-5 c 0,0 -2.2e-5,-1.3822218 -2.2e-5,-2.1166993 0,-0.2931583 0.236008,-0.5291667 0.529167,-0.5291667 z"/><path style="color:#000;fill:#000;-inkscape-stroke:none" id="path1046-6" d="m 38.179687,-4.2324219 v 3.1738282 h 0.369141 v -3.1738282 z"/></g></svg>