<svg xmlns="http://www.w3.org/2000/svg" xmlns:svg="http://www.w3.org/2000/svg" id="svg4268" width="16" height="16" version="1.1" viewBox="0 0 4.233 4.233"><metadata id="metadata4265"/><g id="association" transform="translate(-1.3235742,-9.9270897)" style="display:inline"><g id="path4594"><path style="color:#000;fill:#000;fill-opacity:0;stroke-width:.529167;stroke-linecap:round;stroke-linejoin:round;-inkscape-stroke:none" id="path3630" d="M 3.4395833,10.720825 5.2916666,10.191659 4.7624999,12.043742"/><path style="color:#000;fill:#000;stroke-linecap:round;stroke-linejoin:round;-inkscape-stroke:none" id="path3632" d="m 5.21875,9.9375 -1.8515625,0.529297 a 0.2645835,0.2645835 0 0 0 -0.1816406,0.326172 0.2645835,0.2645835 0 0 0 0.3261719,0.18164 L 4.90625,10.576172 4.5078125,11.970703 a 0.2645835,0.2645835 0 0 0 0.1816406,0.328125 0.2645835,0.2645835 0 0 0 0.328125,-0.18164 L 5.546875,10.263672 A 0.26460996,0.26460996 0 0 0 5.21875,9.9375 Z"/></g><g id="path4596"><path style="color:#000;fill:#000;fill-opacity:0;stroke-width:.529167;stroke-linecap:round;stroke-linejoin:round;-inkscape-stroke:none" id="path3622" d="M 3.4395833,13.366659 1.5875,13.895825 2.1166666,12.043742"/><path style="color:#000;fill:#000;stroke-linecap:round;stroke-linejoin:round;-inkscape-stroke:none" id="path3624" d="m 2.1894531,11.789063 a 0.2645835,0.2645835 0 0 0 -0.328125,0.18164 l -0.5273437,1.851563 a 0.26460996,0.26460996 0 0 0 0.3261718,0.328125 L 3.5117188,13.621094 A 0.2645835,0.2645835 0 0 0 3.6933594,13.294922 0.2645835,0.2645835 0 0 0 3.3671875,13.111328 L 1.9726562,13.509766 2.3710938,12.117188 A 0.2645835,0.2645835 0 0 0 2.1894531,11.789063 Z"/></g><path style="color:#000;fill:#000;-inkscape-stroke:none" id="path4598" d="m 4.8398437,10.269531 -3.1757812,3.173828 0.375,0.375 3.1757812,-3.175781 z"/></g></svg>