<svg xmlns="http://www.w3.org/2000/svg" xmlns:svg="http://www.w3.org/2000/svg" id="svg4268" width="16.004" height="9.006" version="1.1" viewBox="0 0 4.234 2.383"><metadata id="metadata4265"/><g id="object-node" transform="translate(-17.197266,-39.824219)" style="display:inline"><g id="rect1228"><path style="color:#000;fill:#000;fill-opacity:0;stroke-width:.529167;stroke-linecap:round;stroke-linejoin:round;-inkscape-stroke:none" id="path4002" d="m 17.727082,40.089573 h 3.175002 c 0.146578,0 0.264582,0.118004 0.264582,0.264582 v 1.322919 c 0,0.146578 -0.118004,0.264582 -0.264582,0.264582 h -3.175002 c -0.146579,0 -0.264582,-0.118004 -0.264582,-0.264582 v -1.322919 c 0,-0.146578 0.118003,-0.264582 0.264582,-0.264582 z"/><path style="color:#000;fill:#000;stroke-linecap:round;stroke-linejoin:round;-inkscape-stroke:none" id="path4004" d="m 17.726562,39.824219 c -0.288581,0 -0.529296,0.240715 -0.529296,0.529297 v 1.324218 c 0,0.288582 0.240715,0.529297 0.529296,0.529297 h 3.175782 c 0.288581,0 0.529297,-0.240715 0.529297,-0.529297 v -1.324218 c 0,-0.288582 -0.240716,-0.529297 -0.529297,-0.529297 z m 0,0.529297 h 3.175782 v 1.324218 h -3.175782 z"/></g></g></svg>