<svg xmlns="http://www.w3.org/2000/svg" xmlns:svg="http://www.w3.org/2000/svg" id="svg4268" width="12.004" height="15.999" version="1.1" viewBox="0 0 3.176 4.233"><metadata id="metadata4265"/><g id="decision-node" transform="translate(-1.8514457,-39.03125)" style="display:inline"><g id="path1218"><path style="color:#000;fill:#000;fill-opacity:0;stroke-width:.529167;stroke-linejoin:round;-inkscape-stroke:none" id="path3870" d="M 3.4395833,39.295824 2.1166666,41.147907 3.4395833,42.99999 4.7624999,41.147907 Z"/><path style="color:#000;fill:#000;stroke-linejoin:round;-inkscape-stroke:none" id="path3872" d="m 3.4394531,39.03125 a 0.26460996,0.26460996 0 0 0 -0.2148437,0.111328 l -1.3242188,1.851563 a 0.26460996,0.26460996 0 0 0 0,0.30664 l 1.3242188,1.853516 a 0.26460996,0.26460996 0 0 0 0.4296875,0 l 1.3242187,-1.853516 a 0.26460996,0.26460996 0 0 0 0,-0.30664 L 3.6542969,39.142578 A 0.26460996,0.26460996 0 0 0 3.4394531,39.03125 Z m 0,0.71875 L 4.4375,41.148437 3.4394531,42.544922 2.4414063,41.148437 Z"/></g></g></svg>