<svg xmlns="http://www.w3.org/2000/svg" xmlns:svg="http://www.w3.org/2000/svg" id="svg4268" width="16.004" height="14.003" version="1.1" viewBox="0 0 4.234 3.705"><metadata id="metadata4265"/><g id="package" transform="translate(-9.2597636,-4.6347636)" style="display:inline"><g id="rect4911"><path style="color:#000;fill:#000;fill-opacity:0;stroke-width:.529167;stroke-linecap:square;stroke-linejoin:round;-inkscape-stroke:none" id="path3608" d="M 9.5249996,5.9583244 H 13.229166 V 8.074991 H 9.5249996 Z"/><path style="color:#000;fill:#000;stroke-linecap:square;stroke-linejoin:round;-inkscape-stroke:none" id="path3610" d="m 9.5253906,5.6933594 a 0.26460996,0.26460996 0 0 0 -0.265625,0.265625 v 2.1152344 a 0.26460996,0.26460996 0 0 0 0.265625,0.265625 h 3.7031254 a 0.26460996,0.26460996 0 0 0 0.265625,-0.265625 V 5.9589844 A 0.26460996,0.26460996 0 0 0 13.228516,5.6933594 Z M 9.7890625,6.2226562 H 12.964844 V 7.8105469 H 9.7890625 Z"/></g><g id="rect4913"><path style="color:#000;fill:#000;fill-opacity:0;stroke-width:.529167;stroke-linecap:square;stroke-linejoin:round;-inkscape-stroke:none" id="path3600" d="M 9.5249996,4.8999915 H 11.641666 V 5.9583248 H 9.5249996 Z"/><path style="color:#000;fill:#000;stroke-linecap:square;stroke-linejoin:round;-inkscape-stroke:none" id="path3602" d="m 9.5253906,4.6347656 a 0.26460996,0.26460996 0 0 0 -0.265625,0.265625 v 1.0585938 a 0.26460996,0.26460996 0 0 0 0.265625,0.2636718 H 11.642578 A 0.26460996,0.26460996 0 0 0 11.90625,5.9589844 V 4.9003906 A 0.26460996,0.26460996 0 0 0 11.642578,4.6347656 Z M 9.7890625,5.1640625 H 11.376953 V 5.6933594 H 9.7890625 Z"/></g></g></svg>