<svg xmlns="http://www.w3.org/2000/svg" xmlns:svg="http://www.w3.org/2000/svg" id="svg4268" width="15.997" height="15.997" version="1.1" viewBox="0 0 4.232 4.232"><metadata id="metadata4265"/><g id="c4-component" transform="translate(-127,9.7890625)" style="display:inline"><g id="rect1264-7-9"><path style="color:#000;fill:#000;fill-opacity:0;stroke-width:.529167;stroke-linecap:round;stroke-linejoin:round;-inkscape-stroke:none" id="path1443" d="m 127.26458,-9.5249996 h 3.70417 v 3.7041666 h -3.70417 z"/><path style="color:#000;fill:#000;stroke-linecap:round;stroke-linejoin:round;-inkscape-stroke:none" id="path1445" d="M 127.26367,-9.7890625 A 0.26460996,0.26460996 0 0 0 127,-9.5253906 v 3.7050781 a 0.26460996,0.26460996 0 0 0 0.26367,0.2636719 h 3.70508 a 0.26460996,0.26460996 0 0 0 0.26367,-0.2636719 v -3.7050781 a 0.26460996,0.26460996 0 0 0 -0.26367,-0.2636719 z m 0.26563,0.5292969 h 3.17578 v 3.1738281 h -3.17578 z"/></g><g id="text84-8-3-5-4" aria-label="CP" style="font-weight:700;font-size:2.46944px;line-height:1.25;font-family:FreeMono;-inkscape-font-specification:'FreeMono, Bold';letter-spacing:0;word-spacing:0;display:inline;stroke-width:.264583"><path id="path1721" d="m 128.98335,-7.0637099 q -0.0844,0.043408 -0.17725,0.065112 -0.0928,0.021704 -0.19534,0.021704 -0.36414,0 -0.55586,-0.2399504 -0.19172,-0.2399505 -0.19172,-0.6933242 0,-0.4545796 0.19172,-0.69453 0.19172,-0.2399505 0.55586,-0.2399505 0.1025,0 0.19655,0.021704 0.0941,0.021704 0.17604,0.065112 v 0.3954963 q -0.0916,-0.084405 -0.17845,-0.1229897 -0.0856,-0.039791 -0.17725,-0.039791 -0.19534,0 -0.29542,0.1555458 -0.0989,0.15434 -0.0989,0.4594027 0,0.3038568 0.0989,0.4594026 0.10008,0.15434 0.29542,0.15434 0.0916,0 0.17725,-0.038585 0.0868,-0.039791 0.17845,-0.1241955 z"/><path id="path1723" d="m 129.71767,-8.513059 v 0.5281322 h 0.1459 q 0.17484,0 0.24477,-0.059083 0.0711,-0.059083 0.0711,-0.2049828 0,-0.1458995 -0.0711,-0.2049828 -0.0699,-0.059083 -0.24477,-0.059083 z m -0.3557,-0.2990337 h 0.48834 q 0.37258,0 0.53536,0.1326359 0.16399,0.132636 0.16399,0.4304639 0,0.297828 -0.16399,0.4304639 -0.16278,0.132636 -0.53536,0.132636 h -0.13264 v 0.6740317 h -0.3557 z"/></g></g></svg>