<svg xmlns="http://www.w3.org/2000/svg" xmlns:svg="http://www.w3.org/2000/svg" id="svg4268" width="16.004" height="15.997" version="1.1" viewBox="0 0 4.234 4.232"><metadata id="metadata4265"/><g id="property" transform="translate(-77.787109,-19.050779)" style="display:inline"><g id="rect4893-7-3"><path style="color:#000;fill:#000;fill-opacity:0;stroke-width:.529167;stroke-linecap:square;stroke-linejoin:round;-inkscape-stroke:none" id="path2718" d="m 78.052078,19.314583 h 3.704167 v 3.704167 h -3.704167 z"/><path style="color:#000;fill:#000;stroke-linecap:square;stroke-linejoin:round;-inkscape-stroke:none" id="path2720" d="m 78.052734,19.050781 a 0.26460996,0.26460996 0 0 0 -0.265625,0.263672 v 3.705078 a 0.26460996,0.26460996 0 0 0 0.265625,0.263672 h 3.703125 a 0.26460996,0.26460996 0 0 0 0.265625,-0.263672 v -3.705078 a 0.26460996,0.26460996 0 0 0 -0.265625,-0.263672 z m 0.263672,0.529297 h 3.175781 v 3.173828 h -3.175781 z"/></g><g id="text84-8-6" aria-label="P" transform="scale(1.1134396,0.89811791)" style="font-weight:700;font-size:3.80203px;line-height:1.25;font-family:FreeMono;-inkscape-font-specification:'FreeMono, Bold';letter-spacing:0;word-spacing:0;display:inline;stroke-width:.237627"><path id="path1677" d="m 71.514853,22.627514 v 0.813129 h 0.224631 q 0.269187,0 0.376862,-0.09097 0.109531,-0.09097 0.109531,-0.315598 0,-0.224632 -0.109531,-0.315599 -0.107675,-0.09097 -0.376862,-0.09097 z m -0.547656,-0.460402 h 0.751866 q 0.573646,0 0.824269,0.20421 0.252478,0.204211 0.252478,0.662757 0,0.458545 -0.252478,0.662756 -0.250623,0.20421 -0.824269,0.20421 h -0.20421 v 1.037762 h -0.547656 z"/></g></g></svg>