<svg xmlns="http://www.w3.org/2000/svg" xmlns:svg="http://www.w3.org/2000/svg" id="svg4268" width="16.006" height="16.006" version="1.1" viewBox="0 0 4.235 4.235"><metadata id="metadata4265"/><g id="realization" transform="translate(-1.3224838,-15.344881)" style="display:inline"><path style="color:#000;fill:#000;stroke-linecap:round;stroke-linejoin:round;-inkscape-stroke:none" id="path4594-6-7" d="m 5.21875,15.355469 -1.8515625,0.529297 a 0.2645835,0.2645835 0 0 0 -0.1816406,0.328125 0.2645835,0.2645835 0 0 0 0.3261719,0.18164 L 4.90625,15.996094 4.5078125,17.390625 a 0.2645835,0.2645835 0 0 0 0.1816406,0.326172 0.2645835,0.2645835 0 0 0 0.328125,-0.181641 L 5.546875,15.683594 A 0.26460996,0.26460996 0 0 0 5.21875,15.355469 Z"/><g id="path4598-1-5"><path style="color:#000;fill:#000;fill-opacity:0;stroke-width:.529167;stroke-linecap:round;stroke-dasharray:.529167,1.05833;-inkscape-stroke:none" id="path3696" d="M 1.5875003,19.314584 5.0270833,15.875"/><path style="color:#000;fill:#000;stroke-linecap:round;stroke-dasharray:.529167,1.05833;-inkscape-stroke:none" id="path3698" d="m 5.0273437,15.611328 a 0.2645835,0.2645835 0 0 0 -0.1875,0.07617 l -0.072266,0.07227 a 0.2645835,0.2645835 0 0 0 0,0.375 0.2645835,0.2645835 0 0 0 0.375,0 l 0.072266,-0.07227 a 0.2645835,0.2645835 0 0 0 0,-0.375 0.2645835,0.2645835 0 0 0 -0.1875,-0.07617 z m -0.8203125,0.820313 a 0.2645835,0.2645835 0 0 0 -0.1875,0.07617 l -0.3749999,0.375 a 0.2645835,0.2645835 0 0 0 0,0.373047 0.2645835,0.2645835 0 0 0 0.3749999,0 l 0.375,-0.373047 a 0.2645835,0.2645835 0 0 0 0,-0.375 0.2645835,0.2645835 0 0 0 -0.1875,-0.07617 z m -1.1230468,1.121093 a 0.2645835,0.2645835 0 0 0 -0.1875,0.07813 l -0.3730469,0.375 a 0.2645835,0.2645835 0 0 0 0,0.373047 0.2645835,0.2645835 0 0 0 0.3730469,0 l 0.375,-0.373047 a 0.2645835,0.2645835 0 0 0 0,-0.375 0.2645835,0.2645835 0 0 0 -0.1875,-0.07813 z m -1.3085938,1.201172 -0.375,0.373047 a 0.2645835,0.2645835 0 0 0 0,0.375 0.2645835,0.2645835 0 0 0 0.375,0 l 0.3730469,-0.375 a 0.2645835,0.2645835 0 0 0 0,-0.373047 0.2645835,0.2645835 0 0 0 -0.3730469,0 z"/></g></g></svg>