<svg xmlns="http://www.w3.org/2000/svg" xmlns:svg="http://www.w3.org/2000/svg" id="svg4268" width="15.998" height="16" version="1.1" viewBox="0 0 4.233 4.233"><metadata id="metadata4265"/><g id="extend" transform="translate(-59.531468,-19.18729)" style="display:inline"><g id="path4594-6-1"><path style="color:#000;fill:#000;fill-opacity:0;stroke-width:.529167;stroke-linecap:round;stroke-linejoin:round;-inkscape-stroke:none" id="path3748" d="m 61.647916,19.981241 1.852083,-0.529166 -0.529166,1.852083"/><path style="color:#000;fill:#000;stroke-linecap:round;stroke-linejoin:round;-inkscape-stroke:none" id="path3750" d="m 63.427734,19.197266 -1.851562,0.529296 a 0.2645835,0.2645835 0 0 0 -0.183594,0.328125 0.2645835,0.2645835 0 0 0 0.328125,0.181641 l 1.394531,-0.398437 -0.398437,1.394531 a 0.2645835,0.2645835 0 0 0 0.18164,0.326172 0.2645835,0.2645835 0 0 0 0.326172,-0.181641 l 0.529297,-1.851562 a 0.26460996,0.26460996 0 0 0 -0.326172,-0.328125 z"/></g><path style="color:#000;fill:#000;stroke-linecap:round;stroke-dasharray:.529167,1.05833;-inkscape-stroke:none" id="path4598-1-2" d="m 63.048828,19.529297 -0.07227,0.07227 a 0.2645835,0.2645835 0 0 0 0,0.375 0.2645835,0.2645835 0 0 0 0.373047,0 l 0.07227,-0.07227 a 0.2645835,0.2645835 0 0 0 0,-0.375 0.2645835,0.2645835 0 0 0 -0.373047,0 z m -0.820312,0.820312 -0.375,0.375 a 0.2645835,0.2645835 0 0 0 0,0.373047 0.2645835,0.2645835 0 0 0 0.375,0 l 0.373046,-0.373047 a 0.2645835,0.2645835 0 0 0 0,-0.375 0.2645835,0.2645835 0 0 0 -0.373046,0 z m -1.123047,1.123047 -0.375,0.373047 a 0.2645835,0.2645835 0 0 0 0,0.375 0.2645835,0.2645835 0 0 0 0.375,0 l 0.375,-0.375 a 0.2645835,0.2645835 0 0 0 0,-0.373047 0.2645835,0.2645835 0 0 0 -0.375,0 z m -1.123047,1.123047 -0.373047,0.373047 a 0.2645835,0.2645835 0 0 0 0,0.375 0.2645835,0.2645835 0 0 0 0.373047,0 l 0.375,-0.375 a 0.2645835,0.2645835 0 0 0 0,-0.373047 0.2645835,0.2645835 0 0 0 -0.375,0 z"/><g id="text576" aria-label="E" style="font-weight:700;font-size:2.82223px;line-height:1.25;font-family:FreeMono;-inkscape-font-specification:'FreeMono Bold';letter-spacing:0;word-spacing:0;stroke-width:.264583"><path id="path1706" d="m 63.721773,23.411301 h -1.281579 v -2.057417 h 1.281579 v 0.358291 h -0.875057 v 0.443729 h 0.792375 v 0.358291 h -0.792375 v 0.538815 h 0.875057 z"/></g></g></svg>