<svg xmlns="http://www.w3.org/2000/svg" xmlns:svg="http://www.w3.org/2000/svg" id="svg4268" width="10" height="15.997" version="1.1" viewBox="0 0 2.646 4.232"><metadata id="metadata4265"/><g id="generalization" transform="translate(-10.054032,-9.9277326)" style="display:inline"><g id="path4621"><path style="color:#000;fill:#000;fill-opacity:0;stroke-width:.529167;stroke-linecap:round;stroke-linejoin:round;-inkscape-stroke:none" id="path3644" d="m 11.377083,10.191658 -1.058333,1.5875 h 2.116667 z"/><path style="color:#000;fill:#000;stroke-linecap:round;stroke-linejoin:round;-inkscape-stroke:none" id="path3646" d="M 11.376953,9.9277344 A 0.26460996,0.26460996 0 0 0 11.15625,10.044922 l -1.058594,1.587891 a 0.26460996,0.26460996 0 0 0 0.220703,0.410156 h 2.117188 A 0.26460996,0.26460996 0 0 0 12.65625,11.632813 L 11.597656,10.044922 A 0.26460996,0.26460996 0 0 0 11.376953,9.9277344 Z m 0,0.7402346 0.5625,0.845703 h -1.125 z"/></g><path style="color:#000;fill:#000;stroke-linecap:round;-inkscape-stroke:none" id="path4625" d="m 11.376953,11.779297 a 0.2645835,0.2645835 0 0 0 -0.263672,0.263672 v 1.853515 a 0.2645835,0.2645835 0 0 0 0.263672,0.263672 0.2645835,0.2645835 0 0 0 0.265625,-0.263672 v -1.853515 a 0.2645835,0.2645835 0 0 0 -0.265625,-0.263672 z"/></g></svg>