<svg xmlns="http://www.w3.org/2000/svg" xmlns:svg="http://www.w3.org/2000/svg" id="svg4268" width="15.997" height="15.997" version="1.1" viewBox="0 0 4.232 4.232"><metadata id="metadata4265"/><g id="requirement" transform="translate(-69.84987,9.7904953)" style="display:inline"><path style="color:#000;fill:#000;fill-opacity:0;stroke-width:.529167;stroke-linecap:square;stroke-linejoin:round;-inkscape-stroke:none" id="rect4893-97" d="m 70.113542,-9.7904953 a 0.26460982,0.26460982 0 0 0 -0.263672,0.263672 v 3.7050786 a 0.26460982,0.26460982 0 0 0 0.263672,0.263672 h 3.705078 a 0.26460982,0.26460982 0 0 0 0.263672,-0.263672 v -3.7050786 a 0.26460982,0.26460982 0 0 0 -0.263672,-0.263672 z m 0.265625,0.5292971 h 3.175782 v 3.1757815 h -3.175782 z"/><g id="text84" aria-label="R" style="font-weight:700;font-size:2.82223px;line-height:1.25;-inkscape-font-specification:'sans-serif Bold';letter-spacing:0;word-spacing:0;stroke-width:.264583"><path style="font-size:4.23333px;font-family:FreeMono;-inkscape-font-specification:'FreeMono Bold'" id="path1674" d="m 72.40126,-7.8881027 q 0.09095,0.018604 0.157097,0.086816 0.06821,0.066146 0.165364,0.260449 l 0.558105,1.1100088 H 72.6121 l -0.37207,-0.7792799 q -0.01654,-0.033073 -0.04341,-0.090951 -0.163297,-0.3493323 -0.384472,-0.3493323 h -0.194304 v 1.2195627 h -0.609781 v -3.0861139 h 0.880566 q 0.595312,0 0.853694,0.2108397 0.260449,0.2108396 0.260449,0.6862624 0,0.3183266 -0.15503,0.5064286 -0.155029,0.1881021 -0.446484,0.2253091 z m -0.783414,-1.11621 v 0.8412916 h 0.287321 q 0.250114,0 0.357601,-0.097152 0.109554,-0.099219 0.109554,-0.3245278 0,-0.225309 -0.107487,-0.3224606 -0.107487,-0.097152 -0.359668,-0.097152 z"/></g></g></svg>