<svg xmlns="http://www.w3.org/2000/svg" xmlns:svg="http://www.w3.org/2000/svg" id="svg4268" width="15.997" height="15.997" version="1.1" viewBox="0 0 4.232 4.232"><metadata id="metadata4265"/><g id="situation" transform="translate(-119.06159,-33.866536)" style="display:inline"><path style="color:#000;fill:#000;fill-opacity:0;stroke-width:.529167;stroke-linecap:square;stroke-linejoin:round;-inkscape-stroke:none" id="path667" d="m 119.32526,33.866536 a 0.26460982,0.26460982 0 0 0 -0.26367,0.263672 v 3.705078 a 0.26460982,0.26460982 0 0 0 0.26367,0.263672 h 3.70508 a 0.26460982,0.26460982 0 0 0 0.26367,-0.263672 v -3.705078 a 0.26460982,0.26460982 0 0 0 -0.26367,-0.263672 z m 0.26562,0.529297 h 3.17579 v 3.175781 h -3.17579 z"/><g id="text671" aria-label="S" style="font-weight:700;font-size:2.82223px;line-height:1.25;-inkscape-font-specification:'sans-serif Bold';letter-spacing:0;word-spacing:0;stroke-width:.264583"><path style="font-size:4.23333px;font-family:FreeMono;-inkscape-font-specification:'FreeMono Bold'" id="path1643" d="m 120.99905,35.872283 q -0.46096,-0.1757 -0.62426,-0.367936 -0.16329,-0.194304 -0.16329,-0.520898 0,-0.419613 0.26871,-0.659391 0.26872,-0.239779 0.73794,-0.239779 0.21291,0 0.42582,0.04961 0.2129,0.04754 0.42168,0.142627 v 0.595312 q -0.19637,-0.138493 -0.39895,-0.21084 -0.20257,-0.07235 -0.401,-0.07235 -0.22118,0 -0.339,0.08888 -0.11782,0.08888 -0.11782,0.254248 0,0.128158 0.0847,0.212907 0.0868,0.08268 0.35966,0.183968 l 0.26252,0.09922 q 0.37207,0.136425 0.54777,0.361734 0.1757,0.225309 0.1757,0.568441 0,0.467154 -0.27699,0.698664 -0.27492,0.229444 -0.83302,0.229444 -0.22944,0 -0.46095,-0.05581 -0.22945,-0.05374 -0.44442,-0.16123 v -0.630452 q 0.24391,0.173632 0.47129,0.258382 0.22944,0.08475 0.45268,0.08475 0.22531,0 0.34934,-0.101286 0.12402,-0.103353 0.12402,-0.28732 0,-0.138493 -0.0827,-0.241846 -0.0827,-0.10542 -0.23978,-0.165364 z"/></g></g></svg>