<svg xmlns="http://www.w3.org/2000/svg" xmlns:svg="http://www.w3.org/2000/svg" id="svg4268" width="16.004" height="16.004" version="1.1" viewBox="0 0 4.234 4.234"><metadata id="metadata4265"/><g id="value-type" transform="translate(-93.662107,-4.7617167)" style="display:inline"><g id="rect1104"><path style="color:#000;fill:#000;fill-opacity:0;stroke-width:.529167;stroke-linecap:round;stroke-linejoin:round;-inkscape-stroke:none" id="path3584" d="m 93.927086,5.0270834 h 3.704167 V 8.73125 h -3.704167 z"/><path style="color:#000;fill:#000;stroke-linecap:round;stroke-linejoin:round;-inkscape-stroke:none" id="path3586" d="m 93.927734,4.7617187 a 0.26460996,0.26460996 0 0 0 -0.265625,0.265625 v 3.7031251 a 0.26460996,0.26460996 0 0 0 0.265625,0.265625 h 3.703125 a 0.26460996,0.26460996 0 0 0 0.265625,-0.265625 V 5.0273437 a 0.26460996,0.26460996 0 0 0 -0.265625,-0.265625 z m 0.263672,0.5292969 h 3.175781 v 3.1757813 h -3.175781 z"/></g><g id="text1108" aria-label="VT" style="font-weight:700;font-size:2.46944px;line-height:1.25;font-family:FreeMono;-inkscape-font-specification:'FreeMono, Bold';letter-spacing:0;word-spacing:0;display:inline;stroke-width:.264583"><path id="path1695" d="m 95.085237,7.2436009 0.317121,-1.5036092 h 0.358117 L 95.332422,7.5402231 H 94.839258 L 94.411205,5.7399917 h 0.358117 z"/><path id="path1697" d="M 96.750421,7.5402231 H 96.394716 V 6.0510833 H 95.937725 V 5.7399917 h 1.269687 v 0.3110916 h -0.456991 z"/></g></g></svg>