<svg xmlns="http://www.w3.org/2000/svg" xmlns:svg="http://www.w3.org/2000/svg" id="svg4268" width="11.898" height="11.899" version="1.1" viewBox="0 0 3.148 3.148"><metadata id="metadata4265"/><g id="comment-line" transform="translate(-9.5246315,4.3339844)" style="display:inline"><path style="color:#000;fill:#000;stroke-linecap:round;stroke-dasharray:.529167,1.05833;-inkscape-stroke:none" id="path914" d="m 12.408203,-4.3339844 a 0.2645835,0.2645835 0 0 0 -0.185547,0.078125 l -0.375,0.3730469 a 0.2645835,0.2645835 0 0 0 0,0.375 0.2645835,0.2645835 0 0 0 0.375,0 l 0.373047,-0.375 a 0.2645835,0.2645835 0 0 0 0,-0.3730469 0.2645835,0.2645835 0 0 0 -0.1875,-0.078125 z m -1.121094,1.1230469 a 0.2645835,0.2645835 0 0 0 -0.1875,0.076172 l -0.375,0.375 a 0.2645835,0.2645835 0 0 0 0,0.375 0.2645835,0.2645835 0 0 0 0.375,0 l 0.373047,-0.375 a 0.2645835,0.2645835 0 0 0 0,-0.375 0.2645835,0.2645835 0 0 0 -0.185547,-0.076172 z m -1.123046,1.1230469 a 0.2645835,0.2645835 0 0 0 -0.1875005,0.076172 l -0.375,0.3750001 a 0.2645835,0.2645835 0 0 0 0,0.3730468 0.2645835,0.2645835 0 0 0 0.375,0 l 0.3750005,-0.3730468 a 0.2645835,0.2645835 0 0 0 0,-0.3750001 0.2645835,0.2645835 0 0 0 -0.1875,-0.076172 z"/></g></svg>