<svg xmlns="http://www.w3.org/2000/svg" xmlns:svg="http://www.w3.org/2000/svg" id="svg4268" width="16.128" height="16.002" version="1.1" viewBox="0 0 4.267 4.234"><metadata id="metadata4265"/><g id="information-flow" transform="translate(-111.12483,-10.054114)"><path style="color:#000;display:inline;fill:#000;stroke-width:.529167;stroke-linecap:round;stroke-linejoin:round;-inkscape-stroke:none" id="path4594-6-2-7-3" d="m 115.07694,10.054533 a 0.26460979,0.26460979 0 0 0 -0.0586,0.0098 l -1.85156,0.529297 a 0.26492938,0.26492938 0 1 0 0.14453,0.509766 l 1.39453,-0.398438 -0.39844,1.394531 a 0.26493144,0.26493144 0 1 0 0.50977,0.144531 l 0.5293,-1.851562 a 0.26460979,0.26460979 0 0 0 -0.26954,-0.337895 z"/><g id="text150-6" aria-label="F" style="font-weight:700;font-size:2.82223px;line-height:1.25;-inkscape-font-specification:'sans-serif Bold';letter-spacing:0;word-spacing:0;display:inline;stroke-width:.264583"><path style="font-family:FreeMono;-inkscape-font-specification:'FreeMono Bold'" id="path1687" d="m 114.7682,13.768307 q -0.14111,0 -0.14111,-0.189089 v -0.01976 h -0.23989 v 0.403579 h 0.28223 q 0.18626,0 0.18626,0.141112 0,0.141111 -0.18626,0.141111 h -0.60678 q -0.18627,0 -0.18627,-0.141111 0,-0.141112 0.18627,-0.141112 h 0.0423 v -1.080914 h -0.0423 q -0.18627,0 -0.18627,-0.141112 0,-0.08184 0.048,-0.110067 0.048,-0.03104 0.13829,-0.03104 h 1.32927 v 0.426157 q 0,0.186267 -0.14111,0.186267 -0.14112,0 -0.14112,-0.186267 v -0.143934 h -0.72249 v 0.397934 h 0.23989 v -0.01975 q 0,-0.186267 0.14111,-0.186267 0.13829,0 0.13829,0.186267 v 0.318912 q 0,0.189089 -0.13829,0.189089 z"/></g><g id="path4598-1-2-5-3" transform="translate(33.3375,19.843751)" style="display:inline"><path style="color:#000;fill:#000;fill-opacity:0;stroke-width:.529167;stroke-linecap:round;stroke-dasharray:.529167,1.05833;-inkscape-stroke:none" id="path2556-5" d="m 78.052084,-5.8208333 3.439583,-3.4395839"/><path style="color:#000;fill:#000;stroke-linecap:round;stroke-dasharray:.529167,1.05833;-inkscape-stroke:none" id="path2558-6" d="M 81.304687,-9.4472656 81.232422,-9.375 a 0.2645835,0.2645835 0 0 0 0,0.3730469 0.2645835,0.2645835 0 0 0 0.375,0 l 0.07227,-0.072266 a 0.2645835,0.2645835 0 0 0 0,-0.3730468 0.2645835,0.2645835 0 0 0 -0.375,0 z m -0.820312,0.8203125 -0.375,0.3730468 a 0.2645835,0.2645835 0 0 0 0,0.3750001 0.2645835,0.2645835 0 0 0 0.375,0 l 0.375,-0.3750001 a 0.2645835,0.2645835 0 0 0 0,-0.3730468 0.2645835,0.2645835 0 0 0 -0.375,0 z m -1.123047,1.1230469 -0.373047,0.3730468 a 0.2645835,0.2645835 0 0 0 0,0.375 0.2645835,0.2645835 0 0 0 0.373047,0 l 0.375,-0.375 a 0.2645835,0.2645835 0 0 0 0,-0.3730468 0.2645835,0.2645835 0 0 0 -0.375,0 z m -0.935547,1.0449218 a 0.2645835,0.2645835 0 0 0 -0.1875,0.076172 l -0.373047,0.375 a 0.2645835,0.2645835 0 0 0 0,0.375 0.2645835,0.2645835 0 0 0 0.373047,0 l 0.375,-0.375 a 0.2645835,0.2645835 0 0 0 0,-0.375 0.2645835,0.2645835 0 0 0 -0.1875,-0.076172 z"/></g></g></svg>