<svg xmlns="http://www.w3.org/2000/svg" xmlns:svg="http://www.w3.org/2000/svg" id="svg4268" width="10.002" height="15.981" version="1.1" viewBox="0 0 2.646 4.228"><metadata id="metadata4265"/><g id="actor" transform="translate(-44.449217,-19.193359)" style="display:inline"><path style="color:#000;fill:#000;stroke-linecap:round;stroke-linejoin:round;-inkscape-stroke:none" id="path1136" d="m 45.585937,22.175781 -0.792968,0.792969 a 0.2645835,0.2645835 0 0 0 0,0.375 0.2645835,0.2645835 0 0 0 0.373047,0 l 0.607421,-0.607422 0.605469,0.607422 a 0.2645835,0.2645835 0 0 0 0.375,0 0.2645835,0.2645835 0 0 0 0,-0.375 l -0.792969,-0.792969 a 0.26460996,0.26460996 0 0 0 -0.375,0 z"/><path style="color:#000;fill:#000;-inkscape-stroke:none" id="path1138" d="m 45.507812,21.039062 v 1.324219 h 0.529297 v -1.324219 z"/><path style="color:#000;fill:#000;stroke-linecap:round;-inkscape-stroke:none" id="path1140" d="m 44.714844,21.304687 a 0.2645835,0.2645835 0 0 0 -0.265625,0.263672 0.2645835,0.2645835 0 0 0 0.265625,0.265625 h 2.117187 a 0.2645835,0.2645835 0 0 0 0.263672,-0.265625 0.2645835,0.2645835 0 0 0 -0.263672,-0.263672 z"/><g id="path1144"><path style="color:#000;fill:#000;fill-opacity:0;stroke-width:.529167;stroke-linecap:round;stroke-linejoin:round;-inkscape-stroke:none" id="path4198" d="m 46.57233,20.251492 a 0.79374999,0.79374999 0 0 1 -0.79375,0.79375 0.79374999,0.79374999 0 0 1 -0.79375,-0.79375 0.79374999,0.79374999 0 0 1 0.79375,-0.79375 0.79374999,0.79374999 0 0 1 0.79375,0.79375 z"/><path style="color:#000;fill:#000;stroke-linecap:round;stroke-linejoin:round;-inkscape-stroke:none" id="path4200" d="m 45.779297,19.193359 c -0.581367,0 -1.058594,0.477227 -1.058594,1.058594 0,0.581367 0.477227,1.058594 1.058594,1.058594 0.581367,0 1.056641,-0.477227 1.05664,-1.058594 0,-0.581367 -0.475273,-1.058594 -1.05664,-1.058594 z m 0,0.529297 c 0.295384,0 0.529297,0.233913 0.529297,0.529297 0,0.295384 -0.233913,0.529297 -0.529297,0.529297 -0.295384,0 -0.529297,-0.233913 -0.529297,-0.529297 0,-0.295384 0.233913,-0.529297 0.529297,-0.529297 z"/></g></g></svg>