<svg xmlns="http://www.w3.org/2000/svg" xmlns:svg="http://www.w3.org/2000/svg" id="svg4268" width="15.997" height="12.003" version="1.1" viewBox="0 0 4.232 3.176"><metadata id="metadata4265"/><g id="use-case" transform="translate(-35.71875,-19.716797)" style="display:inline"><g id="path1130"><path style="color:#000;fill:#000;fill-opacity:0;stroke-width:.529167;stroke-linecap:square;stroke-linejoin:round;-inkscape-stroke:none" id="path3496" d="m 39.687498,21.304157 a 1.8520833,1.3229166 0 0 1 -1.852083,1.322917 1.8520833,1.3229166 0 0 1 -1.852083,-1.322917 1.8520833,1.3229166 0 0 1 1.852083,-1.322916 1.8520833,1.3229166 0 0 1 1.852083,1.322916 z"/><path style="color:#000;fill:#000;stroke-linecap:square;stroke-linejoin:round;-inkscape-stroke:none" id="path3498" d="m 37.835937,19.716797 c -0.562506,0 -1.077886,0.161102 -1.464843,0.4375 -0.386957,0.276398 -0.652344,0.684984 -0.652344,1.15039 0,0.465407 0.265387,0.873993 0.652344,1.150391 0.386957,0.276398 0.902337,0.4375 1.464843,0.4375 0.562507,0 1.075934,-0.161102 1.462891,-0.4375 0.386957,-0.276398 0.652344,-0.684984 0.652344,-1.150391 0,-0.465406 -0.265387,-0.873992 -0.652344,-1.15039 -0.386957,-0.276398 -0.900384,-0.4375 -1.462891,-0.4375 z m 0,0.529297 c 0.46037,0 0.872886,0.135487 1.15625,0.33789 0.283365,0.202404 0.431641,0.455485 0.431641,0.720703 0,0.265219 -0.148276,0.516347 -0.431641,0.71875 -0.283364,0.202404 -0.69588,0.339844 -1.15625,0.339844 -0.460369,0 -0.872885,-0.13744 -1.15625,-0.339844 -0.283364,-0.202403 -0.43164,-0.453531 -0.43164,-0.71875 0,-0.265218 0.148276,-0.518299 0.43164,-0.720703 0.283365,-0.202403 0.695881,-0.33789 1.15625,-0.33789 z"/></g></g></svg>