<svg xmlns="http://www.w3.org/2000/svg" xmlns:svg="http://www.w3.org/2000/svg" id="svg4268" width="16.015" height="15.998" version="1.1" viewBox="0 0 4.237 4.233"><metadata id="metadata4265"/><g id="verify" transform="translate(-77.787327,4.4766996)" style="display:inline"><path style="color:#000;fill:#000;stroke-width:.529167;stroke-linecap:round;stroke-linejoin:round;-inkscape-stroke:none" id="path4594-6-2-6" d="m 81.744661,-4.476251 a 0.26460979,0.26460979 0 0 0 -0.05859,0.00977 l -1.851565,0.5292925 a 0.26492936,0.26492936 0 1 0 0.144531,0.5097656 l 1.394531,-0.3984375 -0.398437,1.3945313 a 0.26492936,0.26492936 0 1 0 0.509765,0.1445312 l 0.529297,-1.8515625 A 0.26460979,0.26460979 0 0 0 81.744661,-4.476251 Z"/><g id="text150-24" aria-label="V" style="font-weight:700;font-size:2.82223px;line-height:1.25;font-family:FreeMono;-inkscape-font-specification:'FreeMono Bold';letter-spacing:0;word-spacing:0;display:inline;stroke-width:.264583"><path id="path1659" d="m 81.122258,-0.58297103 0.362425,-1.71841847 h 0.409279 l -0.489205,2.05741681 h -0.56362 L 80.351932,-2.3013895 h 0.409279 z"/></g><g id="path4598-1-2-0-8"><path style="color:#000;fill:#000;fill-opacity:0;stroke-width:.529167;stroke-linecap:round;stroke-dasharray:.529167,1.05833;-inkscape-stroke:none" id="path2502" d="M 78.052084,-0.52916667 81.491667,-3.9687506"/><path style="color:#000;fill:#000;stroke-linecap:round;stroke-dasharray:.529167,1.05833;-inkscape-stroke:none" id="path2504" d="m 81.492187,-4.2324219 a 0.2645835,0.2645835 0 0 0 -0.1875,0.076172 l -0.07227,0.072266 a 0.2645835,0.2645835 0 0 0 0,0.375 0.2645835,0.2645835 0 0 0 0.375,0 l 0.07227,-0.072266 a 0.2645835,0.2645835 0 0 0 0,-0.375 0.2645835,0.2645835 0 0 0 -0.1875,-0.076172 z m -1.007812,0.8964844 -0.375,0.375 a 0.2645835,0.2645835 0 0 0 0,0.3730469 0.2645835,0.2645835 0 0 0 0.375,0 l 0.375,-0.3730469 a 0.2645835,0.2645835 0 0 0 0,-0.375 0.2645835,0.2645835 0 0 0 -0.375,0 z m -1.123047,1.1230469 -0.373047,0.375 a 0.2645835,0.2645835 0 0 0 0,0.3730469 0.2645835,0.2645835 0 0 0 0.373047,0 l 0.375,-0.3730469 a 0.2645835,0.2645835 0 0 0 0,-0.375 0.2645835,0.2645835 0 0 0 -0.375,0 z m -1.123047,1.1230469 -0.373047,0.37304683 a 0.2645835,0.2645835 0 0 0 0,0.37499999 0.2645835,0.2645835 0 0 0 0.373047,0 l 0.375,-0.37499999 a 0.2645835,0.2645835 0 0 0 0,-0.37304683 0.2645835,0.2645835 0 0 0 -0.375,0 z"/></g></g></svg>