<svg xmlns="http://www.w3.org/2000/svg" xmlns:svg="http://www.w3.org/2000/svg" id="svg4268" width="16.004" height="16.004" version="1.1" viewBox="0 0 4.234 4.234"><metadata id="metadata4265"/><g id="intermediate-event" transform="translate(-69.849607,-55.033201)" style="display:inline"><g id="rect544-6"><path style="color:#000;fill:#000;fill-opacity:0;stroke-width:.529167;stroke-linecap:round;stroke-linejoin:round;-inkscape-stroke:none" id="path2248" d="m 70.114578,55.297916 h 3.704167 v 3.704167 h -3.704167 z"/><path style="color:#000;fill:#000;stroke-linecap:round;stroke-linejoin:round;-inkscape-stroke:none" id="path2250" d="m 70.115234,55.033203 a 0.26460996,0.26460996 0 0 0 -0.265625,0.265625 v 3.703125 a 0.26460996,0.26460996 0 0 0 0.265625,0.265625 h 3.703125 a 0.26460996,0.26460996 0 0 0 0.265625,-0.265625 v -3.703125 a 0.26460996,0.26460996 0 0 0 -0.265625,-0.265625 z m 0.263672,0.529297 h 3.175781 v 3.175781 h -3.175781 z"/></g><g id="text548-2" aria-label="IE" style="font-weight:700;font-size:2.46944px;line-height:1.25;font-family:FreeMono;-inkscape-font-specification:'FreeMono, Bold';letter-spacing:0;word-spacing:0;display:inline;stroke-width:.264583"><path id="path1654" d="m 70.737286,56.32433 v -0.313503 h 1.07194 v 0.313503 h -0.358117 v 1.173225 h 0.358117 v 0.313503 h -1.07194 v -0.313503 h 0.358117 V 56.32433 Z"/><path id="path1656" d="m 73.340568,57.811058 h -1.121376 v -1.800231 h 1.121376 v 0.313503 h -0.765671 v 0.388261 h 0.693324 v 0.313503 h -0.693324 v 0.471461 h 0.765671 z"/></g></g></svg>