<svg xmlns="http://www.w3.org/2000/svg" xmlns:svg="http://www.w3.org/2000/svg" id="svg4268" width="15.997" height="16.004" version="1.1" viewBox="0 0 4.232 4.234"><metadata id="metadata4265"/><g id="operational-situation" transform="translate(-119.0625,-39.158203)" style="display:inline"><g id="rect707"><path style="color:#000;fill:#000;fill-opacity:0;stroke-width:.529167;stroke-linecap:round;stroke-linejoin:round;-inkscape-stroke:none" id="path2161" d="m 119.32708,39.422916 h 3.70417 v 3.704167 h -3.70417 z"/><path style="color:#000;fill:#000;stroke-linecap:round;stroke-linejoin:round;-inkscape-stroke:none" id="path2163" d="m 119.32617,39.158203 a 0.26460996,0.26460996 0 0 0 -0.26367,0.265625 v 3.703125 a 0.26460996,0.26460996 0 0 0 0.26367,0.265625 h 3.70508 a 0.26460996,0.26460996 0 0 0 0.26367,-0.265625 v -3.703125 a 0.26460996,0.26460996 0 0 0 -0.26367,-0.265625 z m 0.26563,0.529297 h 3.17578 v 3.175781 h -3.17578 z"/></g><g id="text687-0" aria-label="O" transform="scale(1.1288445,0.8858616)" style="font-weight:700;font-size:2.50011px;line-height:1.25;-inkscape-font-specification:'sans-serif Bold';letter-spacing:0;word-spacing:0;display:inline;stroke-width:.234384"><path style="font-size:3.75014px;font-family:FreeMono;-inkscape-font-specification:'FreeMono Bold'" id="path1608" d="m 107.34856,45.701078 q -0.20692,0 -0.30213,0.221566 -0.0952,0.219735 -0.0952,0.712307 0,0.490741 0.0952,0.712307 0.0952,0.219735 0.30213,0.219735 0.20875,0 0.30397,-0.219735 0.0952,-0.221566 0.0952,-0.712307 0,-0.492572 -0.0952,-0.712307 -0.0952,-0.221566 -0.30397,-0.221566 z m -0.95951,0.933873 q 0,-0.70132 0.24171,-1.06022 0.24354,-0.3589 0.7178,-0.3589 0.47609,0 0.7178,0.3589 0.24354,0.3589 0.24354,1.06022 0,0.699489 -0.24354,1.058389 -0.24171,0.3589 -0.7178,0.3589 -0.47426,0 -0.7178,-0.3589 -0.24171,-0.3589 -0.24171,-1.058389 z"/></g></g></svg>