<svg xmlns="http://www.w3.org/2000/svg" xmlns:svg="http://www.w3.org/2000/svg" id="svg4268" width="16.006" height="16.006" version="1.1" viewBox="0 0 4.235 4.235"><metadata id="metadata4265"/><g id="usage" transform="translate(-25.127171,-9.9249589)" style="display:inline"><g id="path4594-6-3"><path style="color:#000;fill:#000;fill-opacity:0;stroke-width:.529167;stroke-linecap:round;stroke-linejoin:round;-inkscape-stroke:none" id="path3688" d="m 27.244363,10.719485 1.852083,-0.529167 -0.529167,1.852084"/><path style="color:#000;fill:#000;stroke-linecap:round;stroke-linejoin:round;-inkscape-stroke:none" id="path3690" d="m 29.023437,9.9355469 -1.851562,0.5292971 a 0.2645835,0.2645835 0 0 0 -0.181641,0.328125 0.2645835,0.2645835 0 0 0 0.326172,0.18164 L 28.710937,10.576172 28.3125,11.96875 a 0.2645835,0.2645835 0 0 0 0.181641,0.328125 0.2645835,0.2645835 0 0 0 0.328125,-0.181641 l 0.529296,-1.851562 A 0.26460996,0.26460996 0 0 0 29.023437,9.9355469 Z"/></g><path style="color:#000;fill:#000;stroke-linecap:round;stroke-dasharray:.529167,1.05833;-inkscape-stroke:none" id="path4598-1-6" d="m 28.644531,10.267578 -0.07227,0.07227 a 0.2645835,0.2645835 0 0 0 0,0.375 0.2645835,0.2645835 0 0 0 0.375,0 l 0.07227,-0.07227 a 0.2645835,0.2645835 0 0 0 0,-0.375 0.2645835,0.2645835 0 0 0 -0.375,0 z m -0.820312,0.820313 -0.373047,0.375 a 0.2645835,0.2645835 0 0 0 0,0.373047 0.2645835,0.2645835 0 0 0 0.373047,0 l 0.375,-0.373047 a 0.2645835,0.2645835 0 0 0 0,-0.375 0.2645835,0.2645835 0 0 0 -0.375,0 z m -1.123047,1.123047 -0.373047,0.373046 a 0.2645835,0.2645835 0 0 0 0,0.375 0.2645835,0.2645835 0 0 0 0.373047,0 l 0.375,-0.375 a 0.2645835,0.2645835 0 0 0 0,-0.373046 0.2645835,0.2645835 0 0 0 -0.375,0 z m -0.935547,1.044921 a 0.2645835,0.2645835 0 0 0 -0.185547,0.07813 l -0.375,0.373047 a 0.2645835,0.2645835 0 0 0 0,0.375 0.2645835,0.2645835 0 0 0 0.375,0 l 0.373047,-0.375 a 0.2645835,0.2645835 0 0 0 0,-0.373047 0.2645835,0.2645835 0 0 0 -0.1875,-0.07813 z"/></g></svg>