<svg xmlns="http://www.w3.org/2000/svg" xmlns:svg="http://www.w3.org/2000/svg" id="svg4268" width="13.413" height="13.413" version="1.1" viewBox="0 0 3.549 3.549"><metadata id="metadata4265"/><g id="connector" transform="translate(-103.5293,-10.396482)" style="display:inline"><path style="color:#000;fill:#000;-inkscape-stroke:none" id="path1166" d="m 105.64648,11.455078 -1.05859,1.058594 0.375,0.373047 1.05664,-1.058594 z"/><g id="rect1168"><path style="color:#000;fill:#000;fill-opacity:0;stroke-width:.373062;stroke-linecap:round;stroke-linejoin:round;-inkscape-stroke:none" id="path2734" d="m 105.83334,10.583333 h 1.05834 v 1.058333 h -1.05834 z"/><path style="color:#000;fill:#000;stroke-linecap:round;stroke-linejoin:round;-inkscape-stroke:none" id="path2736" d="m 105.83398,10.396484 a 0.18654966,0.18654966 0 0 0 -0.1875,0.1875 v 1.058594 a 0.18654966,0.18654966 0 0 0 0.1875,0.185547 h 1.0586 a 0.18654966,0.18654966 0 0 0 0.18555,-0.185547 v -1.058594 a 0.18654966,0.18654966 0 0 0 -0.18555,-0.1875 z m 0.18555,0.373047 h 0.68555 v 0.685547 h -0.68555 z"/></g><g id="rect1170"><path style="color:#000;fill:#000;fill-opacity:0;stroke-width:.373062;stroke-linecap:round;stroke-linejoin:round;-inkscape-stroke:none" id="path2726" d="m 103.71667,12.7 h 1.05833 v 1.058333 h -1.05833 z"/><path style="color:#000;fill:#000;stroke-linecap:round;stroke-linejoin:round;-inkscape-stroke:none" id="path2728" d="m 103.7168,12.513672 a 0.18654966,0.18654966 0 0 0 -0.1875,0.185547 v 1.058594 a 0.18654966,0.18654966 0 0 0 0.1875,0.1875 h 1.05859 a 0.18654966,0.18654966 0 0 0 0.18555,-0.1875 v -1.058594 a 0.18654966,0.18654966 0 0 0 -0.18555,-0.185547 z m 0.18554,0.373047 h 0.68555 v 0.685547 h -0.68555 z"/></g></g></svg>