<svg xmlns="http://www.w3.org/2000/svg" xmlns:svg="http://www.w3.org/2000/svg" id="svg4268" width="16.004" height="15" version="1.1" viewBox="0 0 4.234 3.969"><metadata id="metadata4265"/><g id="activity-partition" transform="translate(-25.134764,-39.158201)" style="display:inline"><g id="path1922"><path style="color:#000;fill:#000;fill-opacity:0;stroke-width:.529167;stroke-linecap:round;stroke-linejoin:round;-inkscape-stroke:none" id="path4022" d="m 25.4,42.8625 v -3.439583 h 3.704167 V 42.8625"/><path style="color:#000;fill:#000;stroke-linecap:round;stroke-linejoin:round;-inkscape-stroke:none" id="path4024" d="m 25.400391,39.158203 a 0.26460996,0.26460996 0 0 0 -0.265625,0.265625 v 3.439453 a 0.2645835,0.2645835 0 0 0 0.265625,0.263672 0.2645835,0.2645835 0 0 0 0.263671,-0.263672 V 39.6875 h 3.175782 v 3.175781 a 0.2645835,0.2645835 0 0 0 0.263672,0.263672 0.2645835,0.2645835 0 0 0 0.265625,-0.263672 v -3.439453 a 0.26460996,0.26460996 0 0 0 -0.265625,-0.265625 z"/></g><path style="color:#000;fill:#000;-inkscape-stroke:none" id="path1924" d="m 25.664062,40.349609 v 0.263672 h 3.175782 v -0.263672 z"/><path style="color:#000;fill:#000;stroke-linecap:round;-inkscape-stroke:none" id="path4383" d="M 27.251953,39.423828 A 0.26458335,0.26458335 0 0 0 26.988281,39.6875 v 3.175781 a 0.26458335,0.26458335 0 0 0 0.263672,0.263672 0.26458335,0.26458335 0 0 0 0.265625,-0.263672 V 39.6875 a 0.26458335,0.26458335 0 0 0 -0.265625,-0.263672 z"/></g></svg>