<svg xmlns="http://www.w3.org/2000/svg" xmlns:svg="http://www.w3.org/2000/svg" id="svg4268" width="15.872" height="16.055" version="1.1" viewBox="0 0 4.199 4.248"><metadata id="metadata4265"/><g id="include" transform="translate(-51.593968,-19.164981)" style="display:inline"><path style="color:#000;fill:#000;stroke-width:.529167;stroke-linecap:round;stroke-linejoin:round;-inkscape-stroke:none" id="path4594-6-2" d="m 55.512532,19.165396 a 0.26460979,0.26460979 0 0 0 -0.05859,0.0098 l -1.851562,0.529297 a 0.26492937,0.26492937 0 1 0 0.144531,0.509765 l 1.394531,-0.398437 -0.398437,1.394531 a 0.26492951,0.26492951 0 1 0 0.509766,0.144531 l 0.529296,-1.851562 A 0.26460979,0.26460979 0 0 0 55.512536,19.16543 Z"/><g id="text530" aria-label="I" style="font-weight:700;font-size:2.82223px;line-height:1.25;font-family:FreeMono;-inkscape-font-specification:'FreeMono Bold';letter-spacing:0;word-spacing:0;stroke-width:.264583"><path id="path1703" d="m 54.568292,21.702474 v -0.358291 h 1.225079 v 0.358291 h -0.409279 v 1.340835 h 0.409279 V 23.4016 h -1.225079 v -0.358291 h 0.409278 v -1.340835 z"/></g><path style="color:#000;fill:#000;stroke-linecap:round;stroke-dasharray:.529167,1.05833;-inkscape-stroke:none" id="path4598-1-2-8" d="m 55.298828,19.443359 a 0.2645835,0.2645835 0 0 0 -0.1875,0.07813 l -0.07227,0.07227 a 0.2645835,0.2645835 0 0 0 0,0.373047 0.2645835,0.2645835 0 0 0 0.373047,0 l 0.07227,-0.07031 a 0.2645835,0.2645835 0 0 0 0,-0.375 0.2645835,0.2645835 0 0 0 -0.185547,-0.07813 z m -1.007812,0.898438 -0.375,0.375 a 0.2645835,0.2645835 0 0 0 0,0.373047 0.2645835,0.2645835 0 0 0 0.375,0 l 0.373046,-0.373047 a 0.2645835,0.2645835 0 0 0 0,-0.375 0.2645835,0.2645835 0 0 0 -0.373046,0 z m -1.123047,1.123047 -0.375,0.373047 a 0.2645835,0.2645835 0 0 0 0,0.375 0.2645835,0.2645835 0 0 0 0.375,0 l 0.375,-0.375 a 0.2645835,0.2645835 0 0 0 0,-0.373047 0.2645835,0.2645835 0 0 0 -0.375,0 z m -1.123047,1.121093 -0.373047,0.375 a 0.2645835,0.2645835 0 0 0 0,0.375 0.2645835,0.2645835 0 0 0 0.373047,0 l 0.375,-0.375 a 0.2645835,0.2645835 0 0 0 0,-0.375 0.2645835,0.2645835 0 0 0 -0.375,0 z"/></g></svg>