<svg xmlns="http://www.w3.org/2000/svg" xmlns:svg="http://www.w3.org/2000/svg" id="svg4268" width="16.004" height="15.997" version="1.1" viewBox="0 0 4.234 4.232"><metadata id="metadata4265"/><g id="top-event" transform="translate(-93.662109,-49.742185)" style="display:inline"><g id="rect1357"><path style="color:#000;fill:#000;fill-opacity:0;stroke-width:.529167;stroke-linecap:round;stroke-linejoin:round;-inkscape-stroke:none" id="path2240" d="m 93.927078,50.006252 h 3.704167 v 3.704167 h -3.704167 z"/><path style="color:#000;fill:#000;stroke-linecap:round;stroke-linejoin:round;-inkscape-stroke:none" id="path2242" d="m 93.927734,49.742187 a 0.26460996,0.26460996 0 0 0 -0.265625,0.263672 v 3.705078 a 0.26460996,0.26460996 0 0 0 0.265625,0.263672 h 3.703125 a 0.26460996,0.26460996 0 0 0 0.265625,-0.263672 v -3.705078 a 0.26460996,0.26460996 0 0 0 -0.265625,-0.263672 z m 0.263672,0.529297 h 3.175781 v 3.173828 h -3.175781 z"/></g><g id="text1361" aria-label="TE" style="font-weight:700;font-size:2.46944px;line-height:1.25;font-family:FreeMono;-inkscape-font-specification:'FreeMono, Bold';letter-spacing:0;word-spacing:0;display:inline;stroke-width:.264583"><path id="path1649" d="m 95.263609,52.519394 h -0.355706 v -1.48914 H 94.450912 V 50.719163 H 95.7206 v 0.311091 h -0.456991 z"/><path id="path1651" d="m 97.153068,52.519394 h -1.121376 v -1.800231 h 1.121376 v 0.313503 h -0.765671 v 0.388261 h 0.693324 v 0.313503 h -0.693324 v 0.471461 h 0.765671 z"/></g></g></svg>