<svg xmlns="http://www.w3.org/2000/svg" xmlns:svg="http://www.w3.org/2000/svg" id="svg4268" width="15.997" height="15.997" version="1.1" viewBox="0 0 4.232 4.232"><metadata id="metadata4265"/><g id="controller" transform="translate(-126.99909,-33.866536)" style="display:inline"><path style="color:#000;fill:#000;fill-opacity:0;stroke-width:.529167;stroke-linecap:square;stroke-linejoin:round;-inkscape-stroke:none" id="path675" d="m 127.26276,33.866536 a 0.26460982,0.26460982 0 0 0 -0.26367,0.263672 v 3.705078 a 0.26460982,0.26460982 0 0 0 0.26367,0.263672 h 3.70508 a 0.26460982,0.26460982 0 0 0 0.26367,-0.263672 v -3.705078 a 0.26460982,0.26460982 0 0 0 -0.26367,-0.263672 z m 0.26562,0.529297 h 3.17579 v 3.175781 h -3.17579 z"/><g id="text679" aria-label="C" style="font-weight:700;font-size:2.82223px;line-height:1.25;-inkscape-font-specification:'sans-serif Bold';letter-spacing:0;word-spacing:0;stroke-width:.264583"><path style="font-size:4.23333px;font-family:FreeMono;-inkscape-font-specification:'FreeMono Bold'" id="path1632" d="m 130.11683,37.137321 q -0.14469,0.07441 -0.30385,0.111621 -0.15917,0.03721 -0.33487,0.03721 -0.62425,0 -0.95291,-0.411345 -0.32866,-0.411344 -0.32866,-1.188556 0,-0.77928 0.32866,-1.190624 0.32866,-0.411345 0.95291,-0.411345 0.1757,0 0.33693,0.03721 0.16123,0.03721 0.30179,0.111621 v 0.677995 q -0.15709,-0.144694 -0.30592,-0.21084 -0.14676,-0.06821 -0.30386,-0.06821 -0.33486,0 -0.50643,0.26665 -0.16949,0.264583 -0.16949,0.787549 0,0.520898 0.16949,0.787548 0.17157,0.264583 0.50643,0.264583 0.1571,0 0.30386,-0.06615 0.14883,-0.06821 0.30592,-0.212907 z"/></g></g></svg>