<svg xmlns="http://www.w3.org/2000/svg" xmlns:svg="http://www.w3.org/2000/svg" id="svg4268" width="13.996" height="14.003" version="1.1" viewBox="0 0 3.703 3.705"><metadata id="metadata4265"/><g id="activity-final-node" transform="translate(-17.462891,-34.003906)" style="display:inline"><g id="path1192"><path style="color:#000;fill:#000;fill-opacity:0;stroke-width:.529167;stroke-linecap:round;stroke-linejoin:round;-inkscape-stroke:none" id="path3842" d="m 20.902083,35.856239 a 1.5875,1.5875 0 0 1 -1.5875,1.5875 1.5875,1.5875 0 0 1 -1.5875,-1.5875 1.5875,1.5875 0 0 1 1.5875,-1.5875 1.5875,1.5875 0 0 1 1.5875,1.5875 z"/><path style="color:#000;fill:#000;stroke-linecap:round;stroke-linejoin:round;-inkscape-stroke:none" id="path3844" d="m 19.314453,34.003906 c -1.019742,0 -1.851562,0.83182 -1.851562,1.851563 0,1.019742 0.83182,1.853515 1.851562,1.853515 1.019743,0 1.851563,-0.833773 1.851563,-1.853515 0,-1.019743 -0.83182,-1.851563 -1.851563,-1.851563 z m 0,0.529297 c 0.73376,0 1.322266,0.588506 1.322266,1.322266 0,0.73376 -0.588506,1.324218 -1.322266,1.324218 -0.73376,0 -1.322266,-0.590458 -1.322266,-1.324218 0,-0.73376 0.588506,-1.322266 1.322266,-1.322266 z"/></g><path style="color:#000;fill:#000;stroke-width:.529167;stroke-linecap:round;stroke-linejoin:round;-inkscape-stroke:none" id="path1194" d="m 20.108333,35.856239 a 0.79374999,0.79374999 0 0 1 -0.79375,0.79375 0.79374999,0.79374999 0 0 1 -0.79375,-0.79375 0.79374999,0.79374999 0 0 1 0.79375,-0.79375 0.79374999,0.79374999 0 0 1 0.79375,0.79375 z"/></g></svg>