<svg xmlns="http://www.w3.org/2000/svg" xmlns:svg="http://www.w3.org/2000/svg" id="svg4268" width="15.997" height="16.004" version="1.1" viewBox="0 0 4.232 4.234"><metadata id="metadata4265"/><g id="interaction" transform="translate(-51.593748,10.054688)" style="display:inline"><g id="rect1031"><path style="color:#000;fill:#000;fill-opacity:0;stroke-width:.529167;stroke-linecap:round;stroke-linejoin:round;-inkscape-stroke:none" id="path4120" d="M 51.858334,-9.7895832 H 55.5625 v 3.7041666 h -3.704166 z"/><path style="color:#000;fill:#000;stroke-linecap:round;stroke-linejoin:round;-inkscape-stroke:none" id="path4122" d="m 51.857422,-10.054688 a 0.26460996,0.26460996 0 0 0 -0.263672,0.2656255 v 3.703125 a 0.26460996,0.26460996 0 0 0 0.263672,0.265625 H 55.5625 a 0.26460996,0.26460996 0 0 0 0.263672,-0.265625 v -3.703125 A 0.26460996,0.26460996 0 0 0 55.5625,-10.054688 Z m 0.265625,0.5292974 h 3.175781 v 3.1757812 h -3.175781 z"/></g><g id="path1287"><path style="color:#000;fill:#000;fill-opacity:0;stroke-width:.264583px;-inkscape-stroke:none" id="path4112" d="m 53.18125,-8.2020834 h 1.058333 v 0.5291667 H 53.18125 Z"/><path style="color:#000;fill:#000;-inkscape-stroke:none" id="path4114" d="m 53.048828,-8.3339844 v 0.1328125 0.6601563 h 1.322266 v -0.7929688 z m 0.265625,0.2636719 h 0.792969 v 0.265625 h -0.792969 z"/></g><path style="color:#000;fill:#000;-inkscape-stroke:none" id="path1289-3" d="m 53.578125,-7.6738281 v 1.0585937 h 0.263672 v -1.0585937 z"/><path style="color:#000;fill:#000;-inkscape-stroke:none" id="path1035-7-2-2-7" d="m 53.525391,-9.5273438 -0.002,0.1933594 -0.154296,0.1523438 h -1.246094 v 0.3710937 h 1.40039 l 0.367188,-0.3691406 0.0059,-0.34375 z"/></g></svg>