<svg xmlns="http://www.w3.org/2000/svg" xmlns:svg="http://www.w3.org/2000/svg" xmlns:xlink="http://www.w3.org/1999/xlink" id="svg11300" width="192" height="152" version="1.0" viewBox="0 0 192 152" style="display:inline;enable-background:new"><title id="title4162">Adwaita Icon Template</title><defs id="defs3"><linearGradient id="linearGradient1440"><stop style="stop-color:#26a269;stop-opacity:1" id="stop1428" offset="0"/><stop style="stop-color:#33d17a;stop-opacity:1" id="stop1430" offset=".083"/><stop style="stop-color:#26a269;stop-opacity:1" id="stop1432" offset=".167"/><stop style="stop-color:#26a269;stop-opacity:1" id="stop1434" offset=".833"/><stop style="stop-color:#33d17a;stop-opacity:1" id="stop1436" offset=".917"/><stop style="stop-color:#26a269;stop-opacity:1" id="stop1438" offset="1"/></linearGradient><linearGradient id="linearGradient1418"><stop style="stop-color:#26a269;stop-opacity:1" id="stop1406" offset="0"/><stop style="stop-color:#33d17a;stop-opacity:1" id="stop1408" offset=".058"/><stop style="stop-color:#26a269;stop-opacity:1" id="stop1410" offset=".115"/><stop style="stop-color:#26a269;stop-opacity:1" id="stop1412" offset=".885"/><stop style="stop-color:#33d17a;stop-opacity:1" id="stop1414" offset=".942"/><stop style="stop-color:#26a269;stop-opacity:1" id="stop1416" offset="1"/></linearGradient><linearGradient id="linearGradient1386"><stop style="stop-color:#26a269;stop-opacity:1" id="stop1382" offset="0"/><stop style="stop-color:#33d17a;stop-opacity:1" id="stop1390" offset=".068"/><stop style="stop-color:#26a269;stop-opacity:1" id="stop1392" offset=".136"/><stop style="stop-color:#26a269;stop-opacity:1" id="stop1394" offset=".864"/><stop style="stop-color:#33d17a;stop-opacity:1" id="stop1396" offset=".932"/><stop style="stop-color:#26a269;stop-opacity:1" id="stop1384" offset="1"/></linearGradient><linearGradient id="linearGradient1388" x1="52" x2="96" y1="210" y2="210" gradientTransform="translate(0,2)" gradientUnits="userSpaceOnUse" xlink:href="#linearGradient1386"/><linearGradient id="linearGradient1404" x1="60" x2="112" y1="288" y2="288" gradientUnits="userSpaceOnUse" xlink:href="#linearGradient1418"/><linearGradient id="linearGradient1426" x1="4" x2="40" y1="256" y2="256" gradientUnits="userSpaceOnUse" xlink:href="#linearGradient1440"/></defs><metadata id="metadata4"/><g id="layer1" transform="translate(8,-156)" style="display:inline"><g id="layer4" style="display:inline"><rect id="hicolor" width="128" height="128" x="0" y="172" style="display:inline;overflow:visible;visibility:visible;fill:#f0f0f0;fill-opacity:0;fill-rule:nonzero;stroke:none;stroke-width:.5;marker:none;enable-background:accumulate"/><rect style="display:inline;overflow:visible;visibility:visible;fill:#f0f0f0;fill-opacity:0;fill-rule:nonzero;stroke:none;stroke-width:.5;marker:none;enable-background:accumulate" id="symbolic" width="16" height="16" x="160" y="172"/></g><g id="layer2" style="display:none"><rect style="display:inline;overflow:visible;visibility:visible;fill:#f0f0f0;fill-opacity:1;fill-rule:nonzero;stroke:none;stroke-width:.5;marker:none;enable-background:accumulate" id="128" width="128" height="128" x="0" y="172"/><rect id="16" width="16" height="16" x="160" y="172" style="display:inline;overflow:visible;visibility:visible;fill:#f0f0f0;fill-opacity:1;fill-rule:nonzero;stroke:none;stroke-width:.5;marker:none;enable-background:accumulate"/><text style="font-style:normal;font-variant:normal;font-weight:700;font-stretch:normal;font-size:4px;line-height:125%;font-family:Cantarell;-inkscape-font-specification:'Cantarell, Bold';text-align:start;writing-mode:lr-tb;text-anchor:start;display:inline;fill:#000;fill-opacity:1;stroke:none;stroke-width:.332649;enable-background:new" id="text863" x="0" y="167" xml:space="preserve"><tspan style="font-size:4px;stroke-width:.332649" id="tspan861" x="0" y="167">Hicolor</tspan></text><text id="text867" x="160" y="167" xml:space="preserve" style="font-style:normal;font-variant:normal;font-weight:700;font-stretch:normal;font-size:4px;line-height:125%;font-family:Cantarell;-inkscape-font-specification:'Cantarell, Bold';text-align:start;writing-mode:lr-tb;text-anchor:start;display:inline;fill:#000;fill-opacity:1;stroke:none;stroke-width:.332649;enable-background:new"><tspan id="tspan865" x="160" y="167" style="font-size:4px;stroke-width:.332649">Symbolic</tspan></text></g><g id="layer9" style="display:inline"><rect style="opacity:1;fill:#241f31;fill-opacity:1;stroke:none;stroke-width:4;stroke-linecap:round;stroke-linejoin:round;stroke-opacity:1" id="rect1540" width="8" height="10" x="161" y="175" rx="1" ry="1"/><rect style="opacity:1;fill:#241f31;fill-opacity:1;stroke:none;stroke-width:4.00001;stroke-linecap:round;stroke-linejoin:round;stroke-opacity:1" id="rect1566" width="9" height="2" x="164" y="-181" transform="scale(1,-1)"/><path style="display:inline;fill:#241f31;fill-opacity:1;stroke:none;stroke-width:1px;stroke-linecap:butt;stroke-linejoin:miter;stroke-opacity:1;enable-background:new" id="path1246-53" d="m 176,180 -4,-3 v 6 z"/><path style="display:inline;fill:#77767b;fill-opacity:1;stroke:none;stroke-width:1px;stroke-linecap:butt;stroke-linejoin:miter;stroke-opacity:1;enable-background:new" id="path2454" d="m 60,280 v -1 l -16,-8 v 18 z"/><path style="display:inline;fill:none;stroke:#77767b;stroke-width:6;stroke-linecap:round;stroke-linejoin:round;stroke-opacity:1;enable-background:new" id="path2446" d="m 93,251 v -12 a 6,6 45 0 0 -6,-6 H 46"/><path style="display:inline;fill:none;stroke:#77767b;stroke-width:6;stroke-linecap:round;stroke-linejoin:round;stroke-opacity:1;enable-background:new" id="path2450" d="m 21,265 v 9 a 6,6 45 0 0 6,6 h 22"/><path style="display:inline;fill:none;stroke:#77767b;stroke-width:6;stroke-linecap:round;stroke-linejoin:round;stroke-opacity:1;enable-background:new" id="path2442" d="m 112,270 h 3 a 6,6 135 0 0 6,-6 l 0,-58 a 6,6 45 0 0 -6,-6 h -12"/><path style="display:inline;fill:none;stroke:#77767b;stroke-width:6;stroke-linecap:round;stroke-linejoin:round;stroke-opacity:1;enable-background:new" id="path2430" d="m 21,225 v -19 a 6,6 135 0 1 6,-6 h 13"/><rect style="display:inline;fill:url(#linearGradient1388);fill-opacity:1;stroke-width:4;stroke-linejoin:round;enable-background:new" id="rect1207" width="44" height="16" x="52" y="204" rx="6" ry="6"/><rect style="display:inline;fill:#33d17a;stroke-width:4;stroke-linejoin:round;enable-background:new" id="rect1209" width="44" height="36" x="52" y="180" rx="6" ry="6"/><rect style="display:inline;fill:#8ff0a4;fill-opacity:1;stroke:none;stroke-width:4;stroke-linejoin:round;enable-background:new" id="rect1215" width="44" height="2" x="52" y="190"/><rect style="display:inline;fill:#8ff0a4;fill-opacity:1;stroke:none;stroke-width:4;stroke-linejoin:round;enable-background:new" id="rect1225" width="44" height="2" x="52" y="208"/><path style="display:inline;fill:none;stroke:#9a9996;stroke-width:6;stroke-linecap:round;stroke-linejoin:round;stroke-opacity:1;enable-background:new" id="path1229" d="m 21,224 v -19 a 6,6 135 0 1 6,-6 h 13"/><path style="display:inline;fill:none;stroke:#9a9996;stroke-width:6;stroke-linecap:round;stroke-linejoin:round;stroke-opacity:1;enable-background:new" id="path1244" d="m 93,250 v -12 a 6,6 45 0 0 -6,-6 l -41,0"/><path style="display:inline;fill:#77767b;fill-opacity:1;stroke:none;stroke-width:1px;stroke-linecap:butt;stroke-linejoin:miter;stroke-opacity:1;enable-background:new" id="path1246" d="m 52,200 v -1 l -16,-7 v 17 z"/><path style="display:inline;fill:none;stroke:#9a9996;stroke-width:6;stroke-linecap:round;stroke-linejoin:round;stroke-opacity:1;enable-background:new" id="path1294" d="m 112,269 h 3 a 6,6 135 0 0 6,-6 l 0,-58 a 6,6 45 0 0 -6,-6 h -11"/><rect style="display:inline;fill:#1d7b50;fill-opacity:1;stroke:none;stroke-width:4;stroke-linejoin:round;enable-background:new" id="rect1442" width="28" height="4" x="56" y="184"/><path id="path1444" d="m 56,194 h 36 v 4 h -6 v 4 H 56 Z" style="display:inline;fill:#26a269;fill-opacity:1;stroke:none;stroke-width:3.99999;stroke-linejoin:round;enable-background:new"/><rect style="display:inline;enable-background:new;fill:url(#linearGradient1404);fill-opacity:1;stroke-width:4;stroke-linejoin:round" id="rect1185" width="52" height="16" x="60" y="280" ry="6"/><rect style="display:inline;enable-background:new;fill:#33d17a;stroke-width:4.00001;stroke-linejoin:round" id="rect1187" width="52" height="48" x="60" y="244" rx="6" ry="6"/><rect style="display:inline;enable-background:new;fill:#8ff0a4;fill-opacity:1;stroke:none;stroke-width:4;stroke-linejoin:round" id="rect1217" width="52" height="2" x="60" y="254"/><rect style="display:inline;enable-background:new;fill:#8ff0a4;fill-opacity:1;stroke:none;stroke-width:4;stroke-linejoin:round" id="rect1219" width="52" height="2" x="60" y="278"/><rect style="display:inline;enable-background:new;fill:#1d7b50;fill-opacity:1;stroke:none;stroke-width:4;stroke-linejoin:round" id="rect1325-3" width="28" height="4" x="64" y="248"/><path id="rect1430" d="m 64,260 h 44 v 8 H 96 v 4 H 64 Z" style="display:inline;enable-background:new;fill:#26a269;fill-opacity:1;stroke:none;stroke-width:3.99999;stroke-linejoin:round"/><rect style="display:inline;enable-background:new;fill:#26a269;fill-opacity:1;stroke:none;stroke-width:4;stroke-linejoin:round" id="rect1434" width="36" height="4" x="64" y="284"/><rect style="display:inline;enable-background:new;fill:url(#linearGradient1426);fill-opacity:1;stroke-width:4;stroke-linejoin:round" id="rect1181" width="36" height="16" x="4" y="248" ry="6"/><rect style="display:inline;enable-background:new;fill:#33d17a;stroke-width:4;stroke-linejoin:round" id="rect1183" width="36" height="44" x="4" y="216" ry="6"/><rect style="display:inline;enable-background:new;fill:#8ff0a4;fill-opacity:1;stroke:none;stroke-width:4;stroke-linejoin:round" id="rect1221" width="36" height="2" x="4" y="226"/><rect style="display:inline;enable-background:new;fill:#8ff0a4;fill-opacity:1;stroke:none;stroke-width:4;stroke-linejoin:round" id="rect1223" width="36" height="2" x="4" y="246"/><rect style="display:inline;enable-background:new;fill:#1d7b50;fill-opacity:1;stroke:none;stroke-width:4;stroke-linejoin:round" id="rect1436" width="22" height="4" x="8" y="220"/><path id="path1438" d="m 8,232 h 28 v 4 h -6 v 4 H 8 Z" style="display:inline;enable-background:new;fill:#26a269;fill-opacity:1;stroke:none;stroke-width:3.99999;stroke-linejoin:round"/><rect style="display:inline;enable-background:new;fill:#26a269;fill-opacity:1;stroke:none;stroke-width:4;stroke-linejoin:round" id="rect1440" width="24" height="4" x="8" y="252"/><path style="display:inline;fill:none;stroke:#9a9996;stroke-width:6;stroke-linecap:round;stroke-linejoin:round;stroke-opacity:1;enable-background:new" id="path1289" d="m 21,264 v 9 a 6,6 45 0 0 6,6 h 22"/><path style="display:inline;fill:#9a9996;fill-opacity:1;stroke:none;stroke-width:1px;stroke-linecap:butt;stroke-linejoin:miter;stroke-opacity:1;enable-background:new" id="path1679" d="m 60,279 -16,-9 v 18 z"/><g id="g2662" transform="matrix(1.1606795,0,0,1.1606795,-51.499617,-18.70677)" style="display:inline;stroke-width:.861564;enable-background:new"><path style="fill:#77767b;fill-opacity:1;stroke:none;stroke-width:.861564px;stroke-linecap:butt;stroke-linejoin:miter;stroke-opacity:1" id="path1299-6-2-1-3" d="m 82.585786,213.99453 -3.171572,3.17158 a 2,2 90 0 0 0,2.82842 l 3.171572,3.17158 a 2,2 180 0 0 2.828428,0 l 3.171572,-3.17158 a 2,2 90 0 0 0,-2.82842 l -3.171572,-3.17158 a 2,2 0 0 0 -2.828428,0 z"/><rect style="fill:#77767b;fill-opacity:1;stroke:none;stroke-width:3.44626;stroke-linejoin:round;stroke-opacity:1" id="rect1297-2-7-0-0" width="10.339" height="2.585" x="78.833" y="216"/><path style="fill:#deddda;stroke:none;stroke-width:.861564px;stroke-linecap:butt;stroke-linejoin:miter;stroke-opacity:1" id="path1301-9-0-6-7" d="m 82.585786,211.41421 -3.171572,3.17158 a 2,2 90 0 0 0,2.82842 l 3.171572,3.17158 a 2,2 0 0 0 2.828428,0 l 3.171572,-3.17158 a 2,2 90 0 0 0,-2.82842 l -3.171572,-3.17158 a 2,2 0 0 0 -2.828428,0 z"/></g><path style="display:inline;fill:#9a9996;fill-opacity:1;stroke:none;stroke-width:1px;stroke-linecap:butt;stroke-linejoin:miter;stroke-opacity:1;enable-background:new" id="path2428" d="m 52,199 -16,-9 v 18 z"/><g id="g2662-9-8" transform="matrix(1.1606795,0,0,1.1606795,4.5054595,-51.704234)" style="display:inline;stroke-width:.861564;enable-background:new"><path style="fill:#77767b;fill-opacity:1;stroke:none;stroke-width:.861564px;stroke-linecap:butt;stroke-linejoin:miter;stroke-opacity:1" id="path1299-6-2-1-3-2-9" d="m 82.585786,213.99453 -3.171572,3.17158 a 2,2 90 0 0 0,2.82842 l 3.171572,3.17158 a 2,2 180 0 0 2.828428,0 l 3.171572,-3.17158 a 2,2 90 0 0 0,-2.82842 l -3.171572,-3.17158 a 2,2 0 0 0 -2.828428,0 z"/><rect style="fill:#77767b;fill-opacity:1;stroke:none;stroke-width:3.44626;stroke-linejoin:round;stroke-opacity:1" id="rect1297-2-7-0-0-0-2" width="10.339" height="2.585" x="78.833" y="216"/><path style="fill:#deddda;stroke:none;stroke-width:.861564px;stroke-linecap:butt;stroke-linejoin:miter;stroke-opacity:1" id="path1301-9-0-6-7-6-6" d="m 82.585786,211.41421 -3.171572,3.17158 a 2,2 90 0 0 0,2.82842 l 3.171572,3.17158 a 2,2 0 0 0 2.828428,0 l 3.171572,-3.17158 a 2,2 90 0 0 0,-2.82842 l -3.171572,-3.17158 a 2,2 0 0 0 -2.828428,0 z"/></g></g><g id="layer3" style="display:none"><circle id="circle2892" cx="64" cy="236" r="59.504" style="display:inline;opacity:.1;vector-effect:none;fill:none;fill-opacity:1;stroke:#000;stroke-width:.99;stroke-linecap:butt;stroke-linejoin:miter;stroke-miterlimit:4;stroke-dasharray:.99,.99;stroke-dashoffset:0;stroke-opacity:1;marker:none;marker-start:none;marker-mid:none;marker-end:none;paint-order:normal;enable-background:new"/><rect id="rect2894" width="87.01" height="111.01" x="20.495" y="180.495" rx="8.701" ry="7.929" style="display:inline;opacity:.1;vector-effect:none;fill:none;fill-opacity:1;stroke:#000;stroke-width:.99;stroke-linecap:butt;stroke-linejoin:miter;stroke-miterlimit:4;stroke-dasharray:.99,.99;stroke-dashoffset:0;stroke-opacity:1;marker:none;marker-start:none;marker-mid:none;marker-end:none;paint-order:normal;enable-background:new"/><rect id="rect2896" width="103.01" height="103.01" x="12.495" y="184.495" rx="7.924" ry="7.924" style="display:inline;opacity:.1;vector-effect:none;fill:none;fill-opacity:1;stroke:#000;stroke-width:.99;stroke-linecap:butt;stroke-linejoin:miter;stroke-miterlimit:4;stroke-dasharray:.99,.99;stroke-dashoffset:0;stroke-opacity:1;marker:none;marker-start:none;marker-mid:none;marker-end:none;paint-order:normal;enable-background:new"/><rect id="rect2898" width="111.01" height="87.01" x="8.495" y="200.495" rx="7.929" ry="8.701" style="display:inline;opacity:.1;vector-effect:none;fill:none;fill-opacity:1;stroke:#000;stroke-width:.99;stroke-linecap:butt;stroke-linejoin:miter;stroke-miterlimit:4;stroke-dasharray:.99,.99;stroke-dashoffset:0;stroke-opacity:1;marker:none;marker-start:none;marker-mid:none;marker-end:none;paint-order:normal;enable-background:new"/><path id="path2900" d="M 2.6203015e-5,288.99999 H 128.00003" style="display:inline;fill:none;stroke:#62a0ea;stroke-width:2;stroke-linecap:butt;stroke-linejoin:miter;stroke-miterlimit:4;stroke-dasharray:none;stroke-opacity:1;enable-background:new"/></g></g></svg>